
<!-- Creator: CorelDRAW 2017 -->
<svg xmlns="http://www.w3.org/2000/svg" xml:space="preserve" width="100px" height="80px" version="1.1" style="shape-rendering:geometricPrecision; text-rendering:geometricPrecision; image-rendering:optimizeQuality; fill-rule:evenodd; clip-rule:evenodd"
viewBox="1050 4000 6400 3000"
 xmlns:xlink="http://www.w3.org/1999/xlink">
 <defs>
  <style type="text/css">
   <![CDATA[
    .fil3 {fill:#FEFEFE}
    .fil4 {fill:#373435}
    .fil5 {fill:#373435}
    .fil1 {fill:#ED3237}
    .fil2 {fill:#ED3237}
    .fil6 {fill:#FEFEFE;fill-rule:nonzero}
    .fil0 {fill:#373435;fill-rule:nonzero}
   ]]>
  </style>
 </defs>
 <g id="Layer_x0020_1">
  <metadata id="CorelCorpID_0Corel-Layer"/>
  <g id="_1107010256">
   <path class="fil0" d="M1344.12 7123.31m163.24 -564.41l0 438.06c3.69,0.93 6.46,0.93 9.22,0.93 3.69,0 8.3,0 13.83,0 17.53,0 32.28,-2.77 44.27,-7.38 11.07,-4.61 20.29,-11.99 27.67,-23.06 6.46,-8.3 10.15,-24.9 11.99,-48.88 2.77,-23.98 3.69,-71.02 3.69,-141.1l0 -31.36c0,-58.1 -0.92,-96.83 -2.76,-117.13 -2.77,-20.29 -6.46,-34.12 -11.99,-41.5 -6.46,-10.15 -15.68,-17.52 -27.67,-22.13 -11.99,-4.61 -27.67,-7.38 -46.11,-7.38 -6.46,0 -10.15,0 -13.83,0 -2.77,0 -5.53,0.93 -8.3,0.93zm-163.24 564.41l0 -693.53 178.92 0c65.48,0 114.36,5.54 145.71,16.6 31.35,11.07 56.26,30.44 74.7,58.1 14.76,21.21 24.9,48.88 30.43,83 6.46,33.2 9.22,96.84 9.22,189.06 0,92.22 -2.77,155.86 -9.22,189.06 -5.53,33.2 -15.68,60.87 -30.43,83 -18.44,26.75 -43.35,46.11 -74.7,58.1 -31.35,11.07 -80.24,16.6 -145.71,16.6l-178.92 0zm537.67 0m0 0l0 -693.53 377.2 0 0 134.65 -215.8 0 0 127.27 199.2 0 0 139.26 -199.2 0 0 151.25 215.8 0 0 141.1 -377.2 0z"/>
   <path class="fil0" d="M2592.83 7123.31m297.89 -268.37l159.55 0c0,3.69 0.92,8.3 0.92,13.83 0,4.61 0,11.99 0,21.21 0,84.85 -18.44,147.56 -55.33,188.14 -36.89,41.5 -94.07,61.79 -170.61,61.79 -45.19,0 -83.93,-7.38 -115.28,-22.13 -32.28,-15.68 -58.1,-37.81 -78.39,-68.25 -13.83,-22.13 -23.98,-51.65 -29.51,-90.38 -6.46,-38.73 -9.22,-99.6 -9.22,-182.6 0,-83.93 2.77,-144.79 9.22,-182.6 5.53,-38.74 15.68,-69.17 29.51,-90.38 19.37,-30.43 45.19,-52.56 77.47,-67.32 31.35,-15.68 69.17,-23.06 113.43,-23.06 75.63,0 132.8,21.21 170.61,62.71 37.81,42.43 57.18,106.06 57.18,189.98l0 6.45 -157.7 -0.92c-0.92,-47.03 -5.53,-79.31 -16.6,-98.68 -10.15,-19.37 -26.74,-28.59 -50.72,-28.59 -25.82,0 -44.27,11.99 -53.49,35.04 -10.15,23.06 -14.76,84.85 -14.76,184.45l0 12.91c0,106.98 4.61,172.46 14.76,197.36 9.22,23.98 26.74,35.96 53.49,35.96 23.98,0 41.5,-9.22 50.72,-26.74 10.14,-17.52 14.76,-49.8 14.76,-97.76l0 -30.43zm251.77 268.37m298.81 -284.05l0 -125.43c0,-76.55 -4.61,-124.51 -14.76,-142.95 -9.22,-17.52 -26.74,-26.74 -52.56,-26.74 -24.91,0 -42.43,9.22 -51.65,27.67 -10.15,18.44 -14.76,66.4 -14.76,142.03l0 125.43c0,74.7 4.61,121.73 14.76,141.1 9.22,19.37 26.74,28.59 52.56,28.59 24.91,0 42.43,-9.22 51.65,-27.67 10.15,-19.37 14.76,-66.4 14.76,-142.02zm-298.81 -62.72c0,-83.93 2.77,-144.79 9.22,-182.6 5.54,-38.74 15.68,-69.17 29.52,-90.38 20.29,-30.43 46.11,-53.49 78.39,-68.24 31.36,-14.76 70.09,-22.13 115.28,-22.13 45.19,0 83.93,7.38 115.28,22.13 32.28,14.76 58.1,37.81 77.47,68.24 14.76,22.13 24.9,52.57 30.44,90.38 6.46,38.73 9.22,99.6 9.22,182.6 0,83 -2.77,143.87 -9.22,181.68 -5.54,38.73 -15.68,69.17 -30.44,91.3 -19.37,30.44 -45.19,52.57 -77.47,68.25 -31.35,14.75 -70.09,22.13 -115.28,22.13 -45.19,0 -83.92,-7.38 -115.28,-22.13 -32.28,-15.68 -58.1,-37.81 -78.39,-68.25 -13.83,-22.13 -23.98,-51.65 -29.52,-90.38 -6.45,-38.73 -9.22,-99.6 -9.22,-182.6zm563.49 346.76m0 0l0 -693.53 168.77 0 134.65 427.92c-5.53,-71.93 -9.22,-134.65 -11.99,-186.29 -2.77,-52.57 -3.69,-96.83 -3.69,-132.8l0 -108.83 144.79 0 0 693.53 -169.69 0 -135.57 -440.83c6.46,57.18 11.06,112.51 13.83,166.93 2.77,53.49 4.61,106.06 4.61,156.78l0 117.12 -145.72 0zm522.91 0m1.84 -235.17l148.48 0 0 20.29c0,37.81 4.61,65.48 13.83,80.24 8.3,15.68 23.98,23.98 45.19,23.98 17.52,0 30.44,-6.45 40.58,-17.52 10.15,-11.99 14.76,-28.59 14.76,-48.88 0,-33.2 -23.98,-66.4 -71.93,-96.83 -8.3,-5.54 -13.83,-9.22 -18.45,-11.99l-7.37 -5.54c-65.48,-43.35 -106.06,-76.54 -121.74,-98.68 -11.07,-16.6 -20.29,-35.97 -25.82,-57.18 -6.45,-20.29 -9.22,-43.35 -9.22,-68.24 0,-60.87 17.52,-108.82 52.57,-142.95 35.04,-34.12 83.92,-51.65 144.79,-51.65 67.32,0 118.04,16.6 154.01,50.72 35.05,34.12 52.57,83 52.57,147.56 0,1.84 0,6.46 0,11.07 -0.93,4.61 -0.93,8.3 -0.93,11.07l-145.71 0 0 -8.3c0,-30.43 -4.61,-53.49 -13.83,-69.17 -10.15,-15.68 -23.06,-23.06 -41.5,-23.06 -14.76,0 -27.67,5.53 -36.89,16.6 -9.22,11.07 -13.83,24.9 -13.83,43.34 0,29.52 26.74,59.95 79.31,93.15 9.22,6.45 16.6,11.07 22.13,14.76 3.69,1.84 10.15,5.53 17.52,11.07 56.26,35.97 93.15,66.4 108.82,91.3 10.15,15.68 17.53,33.2 23.06,53.49 4.61,20.29 7.38,42.43 7.38,66.4 0,69.17 -17.52,122.66 -54.41,160.47 -35.96,37.81 -86.69,56.26 -154.01,56.26 -70.09,0 -122.66,-18.44 -158.63,-53.49 -35.05,-35.97 -52.57,-89.46 -52.57,-160.47 0,-4.61 0,-9.22 0,-13.83 0.92,-5.53 0.92,-12.91 1.84,-23.98zm491.56 235.17m298.81 -284.05l0 -125.43c0,-76.55 -4.61,-124.51 -14.76,-142.95 -9.22,-17.52 -26.74,-26.74 -52.56,-26.74 -24.91,0 -42.43,9.22 -51.65,27.67 -10.15,18.44 -14.76,66.4 -14.76,142.03l0 125.43c0,74.7 4.61,121.73 14.76,141.1 9.22,19.37 26.74,28.59 52.56,28.59 24.91,0 42.43,-9.22 51.65,-27.67 10.15,-19.37 14.76,-66.4 14.76,-142.02zm-298.81 -62.72c0,-83.93 2.77,-144.79 9.22,-182.6 5.54,-38.74 15.68,-69.17 29.52,-90.38 20.28,-30.43 46.11,-53.49 78.39,-68.24 31.35,-14.76 70.09,-22.13 115.28,-22.13 45.19,0 83.93,7.38 115.28,22.13 32.28,14.76 58.1,37.81 77.47,68.24 14.76,22.13 24.9,52.57 30.44,90.38 6.46,38.73 9.22,99.6 9.22,182.6 0,83 -2.76,143.87 -9.22,181.68 -5.54,38.73 -15.68,69.17 -30.44,91.3 -19.37,30.44 -45.19,52.57 -77.47,68.25 -31.35,14.75 -70.09,22.13 -115.28,22.13 -45.19,0 -83.93,-7.38 -115.28,-22.13 -32.28,-15.68 -58.1,-37.81 -78.39,-68.25 -13.83,-22.13 -23.98,-51.65 -29.52,-90.38 -6.45,-38.73 -9.22,-99.6 -9.22,-182.6zm563.49 346.76m160.47 -404.87c2.77,0 6.46,0 11.07,0 3.69,0.93 7.38,0.93 9.22,0.93 33.2,0 57.18,-6.46 71.01,-20.29 14.76,-13.83 21.21,-35.97 21.21,-68.24 0,-29.51 -6.46,-50.72 -21.21,-63.64 -13.83,-11.99 -37.81,-18.44 -71.01,-18.44 -1.84,0 -5.53,0 -9.22,0 -4.61,0.92 -8.3,0.92 -11.07,0.92l0 168.77zm-160.47 404.87l0 -693.53 182.61 0c59.94,0 103.29,2.77 130.04,8.3 26.74,5.53 48.88,14.76 65.48,28.59 20.29,16.6 35.04,35.97 44.26,59.94 10.15,23.98 14.76,51.65 14.76,84.85 0,39.65 -6.46,72.86 -21.21,100.52 -13.83,26.74 -35.05,48.88 -64.56,66.4 49.8,22.13 76.55,74.7 79.31,157.7l0 2.77c0,8.3 0.93,21.21 0.93,37.81 0.92,77.47 13.83,126.34 38.73,146.63l-189.98 0c-3.69,-14.76 -7.38,-29.51 -9.22,-45.19 -1.85,-15.68 -2.77,-33.2 -2.77,-50.72 0,-11.07 0,-24.9 0.92,-40.58 0.92,-15.68 0.92,-25.82 0.92,-30.43 0,-42.43 -5.53,-71.94 -16.6,-87.61 -11.06,-15.68 -31.35,-23.06 -59.94,-23.06l-33.2 0 0 277.59 -160.47 0z"/>
   <path class="fil0" d="M6320.69 7123.31m0 0l0 -693.53 162.31 0 0 693.53 -162.31 0zm225.03 0m200.13 -258.22l93.15 0 -46.11 -302.5 -47.04 302.5zm-200.13 258.22l151.25 -693.53 192.75 0 149.4 693.53 -162.31 0 -20.29 -132.8 -127.27 0 -20.29 132.8 -163.24 0z"/>
   <path class="fil1" d="M6425.58 6229.41c-208.42,-116.96 -466.07,-113.75 -730.17,-2.99 217.86,-49.93 464.81,-57.27 730.17,2.99z"/>
   <path class="fil1" d="M5686.57 6372.17c17.57,-53.8 35.15,-107.59 52.73,-161.39 -26.89,57.52 -53.77,115.03 -80.65,172.54 32.26,50.59 127.19,38.15 165.94,-3.94 -23.01,-55.98 -46.02,-111.96 -69.02,-167.95 9.57,54.89 19.13,109.78 28.7,164.67 -26.24,17.41 -75.04,18.65 -97.7,-3.94z"/>
   <path class="fil1" d="M6338.85 6381.81c17.58,-53.8 35.15,-107.59 52.73,-161.39 -26.89,57.52 -53.77,115.03 -80.65,172.54 32.25,50.59 127.19,38.16 165.94,-3.94 -23,-55.98 -46.01,-111.96 -69.01,-167.95 9.57,54.89 19.13,109.78 28.69,164.67 -26.23,17.41 -75.04,18.65 -97.7,-3.93z"/>
   <path class="fil1" d="M6057.12 7086.18l0.08 -1.42c19.2,-340.9 23.17,-599.07 5.8,-905.65 -42.62,309.66 -67.37,546.46 -51.98,904.1l0.13 2.97 45.97 0z"/>
   <path class="fil1" d="M5995.56 5991.54c17.57,53.8 35.15,107.59 52.72,161.39 -26.88,-57.52 -53.76,-115.03 -80.64,-172.54 32.26,-50.59 127.19,-38.16 165.94,3.93 -23,55.98 -46.01,111.97 -69.01,167.95 9.56,-54.89 19.13,-109.78 28.69,-164.67 -26.24,-17.41 -75.04,-18.65 -97.7,3.94z"/>
   <path class="fil1" d="M6255.28 7136.09c-128.46,-72.09 -287.27,-70.11 -450.06,-1.84 134.28,-30.78 286.5,-35.3 450.06,1.84z"/>
   <path class="fil2" d="M4994.73 3911.74c-419.53,-203.89 -938.15,-198.3 -1469.76,-5.22 438.54,-87.04 935.63,-99.84 1469.76,5.22z"/>
   <path class="fil2" d="M3507.18 4160.59c35.38,-93.78 70.76,-187.56 106.14,-281.35 -54.11,100.26 -108.22,200.53 -162.33,300.79 64.93,88.2 256.02,66.52 334.02,-6.86 -46.3,-97.6 -92.61,-195.19 -138.92,-292.79 19.26,95.69 38.5,191.38 57.76,287.06 -52.81,30.35 -151.05,32.52 -196.67,-6.86z"/>
   <path class="fil2" d="M4820.16 4177.42c35.39,-93.78 70.76,-187.56 106.14,-281.35 -54.11,100.26 -108.23,200.53 -162.33,300.79 64.93,88.2 256.02,66.52 334.02,-6.86 -46.3,-97.59 -92.62,-195.19 -138.92,-292.78 19.26,95.69 38.5,191.38 57.76,287.06 -52.81,30.35 -151.05,32.51 -196.67,-6.86z"/>
   <path class="fil2" d="M4253.06 5405.33l0.16 -2.47c38.65,-594.28 46.63,-1044.35 11.68,-1578.81 -85.79,539.81 -135.61,952.63 -104.63,1576.1l0.26 5.18 92.54 0z"/>
   <path class="fil2" d="M4129.12 3497.04c35.39,93.78 70.76,187.57 106.14,281.35 -54.11,-100.26 -108.22,-200.52 -162.33,-300.79 64.93,-88.2 256.02,-66.52 334.02,6.86 -46.3,97.59 -92.61,195.19 -138.92,292.78 19.25,-95.69 38.5,-191.38 57.76,-287.06 -52.81,-30.35 -151.05,-32.51 -196.67,6.86z"/>
   <path class="fil2" d="M4651.92 5492.34c-258.59,-125.67 -578.24,-122.23 -905.92,-3.22 270.3,-53.65 576.69,-61.54 905.92,3.22z"/>
   <path class="fil2" d="M3299.02 3535.01l0 -4.76 4.76 0c-1.83,6.85 0.76,2.26 -4.76,4.76z"/>
   <path class="fil3" d="M5265.31 3699.85l0.47 0.47c-0.04,-0.03 -0.63,-0.31 -0.47,-0.47z"/>
   <polygon class="fil4" points="2964.7,3912.25 2966.29,3912.25 2966.29,3921.76 2964.7,3921.76 "/>
   <path class="fil4" d="M2947.27 4124.64l0.47 0.47c-0.03,-0.03 -0.63,-0.32 -0.47,-0.47z"/>
   <path class="fil4" d="M5531.5 4684.15c1.88,2.96 1.78,-3.54 1.31,3.17 -0.24,3.38 -0.19,1.42 -1.31,3.17l0 -6.34z"/>
   <path class="fil4" d="M2883.89 4869.6c4.87,3.57 2.56,-1.02 3.17,6.34l-3.17 0 0 -6.34z"/>
   <polygon class="fil4" points="2980.54,5099.43 2983.71,5099.43 2983.71,5104.18 2980.54,5104.18 "/>
   <path class="fil5" d="M3114.08 4369.54c-7.44,-2.6 -5.7,-6.28 -14.22,-0.45 -7.09,4.85 -14.43,2.6 -21.61,5.46 -8.93,3.56 -2.09,4.49 -17.6,7.76 -6.61,1.39 -4.47,0.89 -8.7,3.98 -5.6,4.09 -12.76,5.17 -18,8.94l-25.37 14.25c-5.09,2.48 -3.33,2.49 -7.11,5.57l-29.25 23.04c-2.48,2.18 -3.96,3.94 -6.35,6.33 -13.54,13.55 -25.08,29.6 -36.3,44.52l-4.96 6.13c-1.71,3.32 -1.61,5.91 -3.78,8.9 -2.55,3.52 -2.89,1.28 -5.74,6.94l-21.7 46.44c-3.84,-46.19 -1.7,-94.57 -1.64,-141.12 0.01,-9.18 1.64,-11.03 1.64,-18.96 15.47,0 30.1,-2.55 43.89,-6.82 5.66,-1.76 15.72,-2.1 22.43,-2.92l56.8 -19.26c4.82,-2.36 3.7,-2.84 7.49,-5.19l46.82 -35.59c2.28,-2.28 1.1,-0.77 3.39,-2.95 3.44,-3.29 2.52,-3.44 5.98,-6.7 4.49,-4.24 1.76,-0.22 6.01,-6.67l10.51 -14.85c2.77,-5.23 2.61,-3.52 5.32,-7.36l10.04 -15.32c5.37,-12.5 5.86,-9.72 10.43,-21.26 2.4,-6.05 4.02,-3.93 7.27,-11.75 4.49,-10.79 25.09,-37.33 -1.82,-36.91 -22.1,0.34 -42.69,6.59 -64.4,11.87 -15.45,3.76 -30.98,11.32 -45.69,17.69 -6.33,2.75 -3.22,1.89 -7.92,4.76 -4.01,2.44 -5.24,2.04 -8.83,3.85 -6.86,3.44 -2.42,2.26 -7.09,5.58 -4.28,3.04 -4.06,1.35 -8.25,4.43 -3.32,2.44 -3.04,3.46 -6.87,5.81l-31.37 25.67c-10.93,11.04 -26.2,22.15 -33.55,36.19 -3.7,7.07 -9.29,8.31 -9.49,17.44 -4.23,-3.09 -4.62,-4.2 -2.81,-17.06 1.06,-7.56 2.95,-10.41 4.98,-17.23 3.63,-12.17 1.57,-25.93 4.9,-37.89 1.67,-5.98 4.01,-7.93 5.19,-15.42 1.14,-7.25 1.3,-12.33 2.63,-19.56 1.33,-7.25 3.79,-10.78 5.43,-16.76 1.41,-5.15 3.33,-13.15 3.45,-18.74 6.23,0 7.27,-1.13 11.09,-1.12 4.1,0.02 5.84,1.54 12.52,1.09 8.23,-0.54 14.89,-1.38 25.56,-1.5 6.93,-0.07 18.19,-1.65 23.54,-3.39 13.44,-4.36 31.67,-4.5 44.06,-9.82 11.56,-4.97 9.27,-1.89 28.54,-11.08 3.63,-1.73 6.9,-2.08 10.44,-3.82 15.33,-7.54 36.44,-25.61 48.83,-38.33l21.89 -25.66c1.97,-2.69 2.55,-4.63 4.98,-7.7l6.15 -8.12c2.54,-4.19 2.4,-3.76 5.2,-7.48l5.35 -8.91c2.9,-3.53 2.83,-1.21 5.92,-6.76l13.11 -20.17c1.84,-2.12 1.62,-0.96 3.77,-4.15 0,-19.63 -13.14,-14.29 -28.46,-14.22 -32.09,0.15 -32.92,5.81 -60.34,7.81 -12.98,0.94 -9.12,1.95 -17.96,5.81 -6.95,3.04 -12.04,1.17 -18.19,3.99 -3.94,1.81 -2.73,2.24 -6.84,4.26 -3.33,1.63 -6.69,2.2 -9.63,3.04 -11.78,3.34 -3.98,4.52 -14.16,8.03l-82.32 60.3c-5.29,5.76 -1.53,7.96 -10.85,8.17 4.57,-9.53 1.19,-12.01 10.35,-30.86 2.35,-4.83 1.59,-5.8 2.7,-11.56 2.08,-10.77 5.72,-6.08 8.19,-20.35 1.63,-9.45 -0.31,-5.22 4.08,-10.18 4.39,-4.95 4.78,-14.69 8.41,-20.12 3.7,-5.52 4.55,-13.67 8.8,-19.73 3.46,-4.93 2.95,-2.04 5.02,-9.24 6.02,-20.96 19.66,-12.85 39.68,-11.19 23.45,1.94 58.72,1.1 79.12,-6.28 11.62,-4.2 22.27,-3.22 33.61,-9.17 7.11,-3.73 12.44,-3.91 19.95,-8.57 5.15,-3.19 9.1,-3.12 13.85,-6.75l16.22 -12.3c4.4,-3.57 4.43,-1.9 8.47,-5.8l65.31 -70.97c3.24,-3.72 4.33,-3.42 6.16,-8.19 10.34,-26.83 -32.57,-19.29 -63.74,-19.3 -13.73,0 -28.5,-1.25 -39.86,2.92 -5.43,1.99 -3.69,3.04 -9.66,4.61 -7.65,2 -18.07,0.28 -24.34,4.18 -4.83,3 -2.11,3.83 -8.93,5.33 -8.47,1.87 -11.2,1.17 -17.72,6.04 -2.49,1.86 0,0.56 -2.89,1.87 -4.83,2.2 -11.21,2.93 -14.83,5.77l-14.59 7.59c-0.28,0.19 -0.62,0.5 -0.88,0.7l-25.37 15.83c-5.57,3.9 -0.13,4.66 -8.88,5.39 2.54,-5.3 0.5,-6.46 3.8,-12.06l12.43 -19.26c4.73,-6.07 4.53,-9.87 9.49,-15.87 5.96,-7.22 9.4,-15.78 12.75,-22.11 1.43,-2.72 -0.09,-0.44 1.92,-2.84 7.17,-8.57 12.59,-20.27 19.9,-29.22 2.9,-3.56 3.3,-6.27 6,-9.85l14.26 -19.02c4.65,-7.74 17.89,-23.93 19.26,-29.86 12.53,0 12.86,4.07 23.33,8.36l22.63 9.07c6.74,1.83 9.46,3.37 16.7,5.48 29.19,8.54 84.07,11.74 115.84,-2.84l52.19 -22.29c5.42,-2.33 2.96,-1.85 6.7,-4.39 6.15,-4.18 9.72,-2.22 15.66,-6.52l13.14 -9.06c0,-12.84 -4.38,-15.83 -14.09,-19.2 -7.46,-2.59 -4.38,-1.48 -10.37,-5.48 -5.64,-3.77 -6.4,-2.66 -12.45,-4.98 -5.37,-2.06 -5.67,-3.69 -10.17,-5.67 -5.03,-2.22 -9.39,-1.65 -14.23,-3.21 -5.34,-1.71 -3.71,-3.72 -11.45,-5.98 -4.55,-1.33 -9.58,-1.06 -15.93,-1.5 -12,-0.83 -11.43,-7.32 -25.35,-7.93l-66.56 0.09c-15.27,1.1 -13.31,7.89 -26.98,7.89 2.81,-12.05 12.58,-16.17 19.44,-24.93 2.82,-3.6 1.19,-2.24 4.92,-6.17l22.3 -25.24c7.09,-8.49 14.25,-18.14 26.18,-16.68 10.73,1.31 9.56,7.97 26.91,8.11 14.77,0.11 29.65,-0.07 44.43,-0.07 14.43,0 32.59,2.12 41.87,-4.08 5.15,-3.44 9.17,-3.7 16.71,-5.48l23.33 -11.53c3.63,-2.64 1.29,-2.19 6.38,-4.72 16.38,-8.12 30.24,-22.8 45.33,-33.91l12.2 -9.98c3.86,-2.59 3.59,-1.28 7.55,-5.13 10,-9.72 9.67,-23.07 -7.45,-25.19 -13.59,-1.68 -25.06,-6.19 -38.43,-7.52 -26.37,-2.63 -61.57,-3.3 -83.93,2.72 -8.03,2.16 -18.64,3.56 -26.45,6.83 -6.51,2.72 -19.78,6.09 -25.17,9.7 -5.78,3.85 -8.79,5.67 -17.9,5.87 0,-10.31 0.93,-13.41 5.4,-19.96 6.55,-9.61 2.22,-10.01 6.05,-19.31 4.24,-10.3 4.54,-2.96 6.46,-18.9 0.26,-2.15 0.94,-7.14 1.52,-11.15l3.03 -11.23c6.85,-15.65 2.86,-52.55 2.95,-71.67 0.08,-14.71 -2.63,-10.93 -5.05,-21.9 -3.13,-14.27 -0.15,-34.16 -11.85,-40.62 -6.08,-3.36 -11.96,-0.63 -16.6,3.78l-60.3 74.41c-0.29,0.35 -1.27,1.25 -1.57,1.59 -3.94,4.39 -3.53,6.83 -7.31,11.71 -3.81,4.93 -5.19,11.15 -8.77,16.58 -6.42,9.76 -2.98,8.2 -6.58,18.78 -2.47,7.24 -6.55,11.3 -7.12,19.82 -0.6,8.81 -0.56,14.83 -2.38,22.98 -3.46,15.44 -5.42,29.7 -1.45,45.67 2.87,11.56 6.64,36.35 3.36,48.17 -1.04,3.73 -2.49,4.03 -5.53,7.15 -3.41,3.5 -3.28,4.38 -6.4,7.87l-28.7 33.11c-0.22,0.24 -0.55,0.57 -0.76,0.82l-34.09 41.98c-3.29,3.66 -3.74,7.74 -8.11,9.31 -2.74,-5.72 0.05,-24.52 1.67,-31.61 10.73,-46.94 1.17,-58.21 -3.2,-101.57 -1,-9.87 -1.56,-7.92 -4.71,-14.31 -2.83,-5.74 -2.26,-8.31 -3.45,-15.57 -1.24,-7.5 -3.71,-7.88 -6.09,-12.93 -2.57,-5.47 -1.13,-9.09 -4.61,-14.4 -1.76,-2.69 -2.45,-2.09 -4.1,-5.42 -1.34,-2.72 -1.54,-5.54 -2.07,-7.44 -2.62,-9.36 -4.17,-4.91 -7.44,-11.57 -4.49,-9.15 -2.28,-15.48 -18.28,-19.76l-11.56 15.39c-3.32,5.02 -1.65,5.41 -3.69,10.57 -3.3,8.34 -1.78,0.71 -6.16,8.11 -1.98,3.34 -1.7,6.42 -3.08,9.6 -3.46,7.95 -2.14,0.07 -6.05,8.21 -2.45,5.1 -0.33,4.67 -4.06,10.21 -2.77,4.12 -3.33,2.65 -5.27,8.99 -5.5,17.96 -5.87,10.36 -8.55,18.39 -1.6,4.78 -0.55,6.57 -3.07,11.2 -2.75,5.06 -3.44,2.34 -5.19,9.07 -2.28,8.82 -0.64,14.54 -4.56,22.39 -8.77,17.58 -7.25,61.75 -3.33,76.69 2.4,9.17 4.8,8.22 6.42,20.53 2.59,19.63 6.4,15.23 9.18,32.03 1.98,11.95 5.17,6.23 8.48,20.05 2.06,8.6 6.69,10.92 9.09,19.44 2.98,10.59 1.11,3.06 5.47,8.8l10.09 18.44 -17.26 28.7c-1.41,2.18 -2.04,2.27 -3.74,4.19 -4.8,5.41 -2.89,7.39 -9.71,15.64 -3.04,3.66 -2.09,5.13 -4.82,9.44 -2.82,4.44 -3.43,2.7 -6.11,8.16l-24.23 42.33c-2.51,4.04 -2.19,5.64 -4.35,9.92 -2.59,5.14 -3.72,4.59 -5.79,8.48 -1.62,3.05 -2.35,7.28 -3.22,11.04l-3.17 0c-1.94,-8.33 0.21,-26.5 1.35,-36.69l-1.94 -61c-2.3,-14.7 -6.96,-16.94 -7.33,-33.87 -0.21,-9.53 -1.3,-11.49 -4.7,-17.48 -6.24,-11 1.07,-7.02 -10.4,-30.81 -2.9,-6.03 -1.75,-10.04 -4.64,-15.96 -0.96,-1.97 -3.31,-4.94 -4.31,-6.78 -1.81,-3.33 -1.79,-4.61 -2.86,-8.23 -2.66,-9.04 -4.1,-5.79 -7.31,-13.29l-22.81 -42.16c-22.53,0 -14.97,4.47 -29.65,35.33 -3.31,6.97 -4.48,5.82 -7.11,15.08 -2.41,8.5 -5.33,8.83 -9.3,22.4 -1.9,6.52 -0.56,2.38 -4.19,6.9 -6.18,7.71 -1.45,8.18 -5.81,16.37 -3.27,6.15 -5.6,7.55 -6.89,15.29 -4.69,28.2 -5.56,0.56 -8.58,34.22 -0.11,1.22 -1.08,7.78 -1.54,9.56 -2.85,11.24 -6.3,11.35 -6.16,27.12 0.07,7.88 -1.59,13.4 -1.16,18.58 0.5,5.96 0.91,12.73 1.11,21.1 0.38,16.61 7.24,20.52 7.94,36.44 0.87,20.19 5.12,12.67 9.08,33.7 2.23,11.84 4.04,7.21 6.83,15.36l19.41 45.57c2.1,5.43 5.89,8.58 8.08,14.11 2.61,6.59 5,7.39 8.43,13.76l16.72 26.17c2.97,4.11 1.96,3.36 1.75,7.12 -0.44,7.73 -2.66,10.14 -5.78,16.46 -3.48,7.04 -3.65,14.95 -7.88,23.82 -2.93,6.15 -2.83,10.5 -4.71,17.48 -1.63,6.07 -4.51,8.35 -6.34,15.84 -1.02,4.17 -2.78,13.7 -2.78,19.42 -15.19,-10.17 -8.6,-29.48 -12.71,-42.76 -3.07,-9.91 -5.16,-4.12 -7.41,-19.54 -1.71,-11.75 -6.22,-11.07 -8.23,-20.3 -1.28,-5.84 0.24,-4.61 -2.75,-9.93 -3.09,-5.5 -3.23,-2.75 -5.53,-8.74 -6.55,-17.08 -5.32,-8.21 -9.56,-18.97 -1.49,-3.78 -1.73,-5.01 -4.42,-8.25 -0.21,-0.25 -0.56,-0.57 -0.77,-0.81l-42.46 -54.21c-26.02,-27.09 -27.48,19.06 -30.1,35.73 -1.17,7.42 -5.96,12.4 -7.22,21.31 -1.4,9.96 0.19,17.5 -2.31,26.22 -2.24,7.78 -5.58,14.09 -5.98,22.55 -0.61,13.14 -0.96,43.88 1.97,53.54 2.42,7.96 5.32,12.34 5.92,21.03 0.9,13.26 4.39,12.21 7.52,21.01 1,2.8 1.31,7.26 2.31,10.37l14.46 26.74c0.19,0.28 0.47,0.65 0.65,0.93l6.57 12.45c0.26,0.39 1.05,1.46 1.31,1.86l8.04 10.98c7.01,7.42 11.72,16.89 18.61,24.19 0.22,0.24 0.55,0.57 0.76,0.82l31.74 34.81c13.07,11.66 -3.22,27 -3.24,57.03 -0.01,11 -0.4,18.52 -1.28,27.25 -1.18,11.71 2.64,17.73 -9.76,18.77 -0.4,-4.78 -1.72,-9.11 -3.11,-12.75 -0.16,-0.42 -2.01,-4.59 -2.48,-5.44 -1.96,-3.48 -1.89,-2.46 -3.63,-5.88l-40.55 -62.46c-7.61,-9.7 -16.3,-16.65 -24.74,-25.96 -9.14,-10.09 -20.37,-17.42 -30.64,-26.41l-16.85 -13.26c-8.96,0.75 -14.58,4.78 -14.84,14.41 -0.7,26.23 -4.96,109.4 2.94,127.46 2.17,4.96 0.57,-0.22 2.43,5.5 1.93,5.9 1.28,14.58 2.81,19.38 2.62,8.19 4.67,7.26 8.6,21.51 2.06,7.44 3.1,4.65 6.12,9.72 2.02,3.4 1.67,5.86 4.04,10.22 6.94,12.73 16.15,23.57 24.61,35.61 4.1,5.83 4.16,3.69 7.52,8.33l80.93 71.2c0,11.93 1.59,24.66 5,36.2 3.46,11.67 6.83,55.49 2.92,63.66 -5.47,-4.01 -0.7,0.08 -4.26,-5.26l-8.51 -10.5c-2.27,-3.23 -2.3,-2.99 -5.03,-6.07 -3.72,-4.2 -5.06,-7.59 -8.78,-11.83l-64.78 -55.66c-6.22,-3.4 -5.9,-4.76 -12.78,-7.81 -13.75,-6.11 0.34,-2.09 -20.04,-10.07 -8.59,-3.36 -0.41,-0.2 -6.53,-4.57l-29.2 -12c-13.43,-2.76 -14.05,-9.37 -31.83,-9.37l0 38.04c6.89,0.76 4.89,1.02 5.97,9.88 1.89,15.52 4.88,14.87 7.19,26.09 0.84,4.07 1.24,10.12 2.83,14.6l8.98 24.3c1.87,6.55 1.95,5.9 4.8,11.05 2.59,4.67 2.91,8 5.14,12.29 1.79,3.44 4.19,6.15 5.97,9.89 3.69,7.76 2.82,4.85 6.89,10.53 3.4,4.75 1.82,5.41 5.7,10.15l24.15 26.56c4.01,4.79 4.64,3.97 8.83,8.6 5.73,6.32 21.25,19.08 28.28,22.43l7.13 3.96c16.9,14.02 50.96,27.07 72.02,34.15 6.43,2.16 5.34,3.39 11.83,5.59 5.02,1.7 13.37,3.06 17.07,6.7 4.74,4.66 3.04,12.84 10.13,32.67 1.54,4.32 5.9,23.54 6.32,28.55 -8.31,-0.19 -14.24,-9.11 -19.97,-14.9 -0.23,-0.23 -0.56,-0.56 -0.8,-0.78l-14.78 -12.15c-12.03,-7.56 -26.01,-20.92 -38.7,-26.28 -6.81,-2.87 -5.73,-4.29 -11.78,-7.23 -5.87,-2.85 -7.04,-1.26 -12.46,-4.96 -7.98,-5.46 -2.5,-2.89 -13.35,-5.67 -8.56,-2.2 -4.7,-2.84 -11.24,-6.19 -6.41,-3.29 -9.99,-1.45 -15.47,-3.55 -3.44,-1.31 -5.48,-4.95 -11.04,-6.38 -5.59,-1.45 -13.49,-0.72 -17.24,-1.78 -13.58,-3.83 -6.7,-10.57 -29.64,-5.22 -4.64,19.93 4.58,21.09 7.81,36.57 2.2,10.51 7.44,13.77 9.17,24.11 1.93,11.5 4.32,7.16 7.38,16.39 2.65,7.98 1.9,11.01 6.88,18.48 3.54,5.32 2.11,5.66 4.3,11.55 2.85,7.61 11.4,17.39 14.87,24.75 0.91,1.93 1.62,5.17 2.65,6.86 2.82,4.67 4.94,4.11 7.34,8.51 1.37,2.52 0.7,2.32 2.85,5.07 0.2,0.25 0.54,0.58 0.75,0.83l57.05 53.88c0.29,0.18 0.67,0.44 0.94,0.64l15.08 8.69c5.29,3.81 0.17,2.96 9.63,6.21 11.04,3.8 10.7,6.49 23.2,10.08 10.78,3.09 -0.09,3.08 22.98,8.71 10.6,2.59 2.32,4.89 25.17,8.11 11.3,1.59 5.74,0.93 12.19,5.24 5.24,3.5 13.8,3.34 20.16,3.61 8.43,0.36 8.69,0.84 13.38,7.21 14.44,19.57 3.6,9.67 13.74,24.3 3.94,5.69 4.11,10.24 9.2,17.74l6.4 15.79c-10.88,0 -6.95,-0.73 -13.13,-5.89 -3.43,-2.87 -2.75,-1.74 -6.1,-3.41 -4.89,-2.44 -1.44,-0.18 -5.52,-3.99 -0.24,-0.22 -0.52,-0.6 -0.77,-0.81 -0.24,-0.22 -0.56,-0.57 -0.81,-0.78l-15.48 -9.87c-3.31,-1.48 -5.01,-1.26 -8.1,-2.99 -6.72,-3.76 -2.25,-4.58 -12.01,-7 -11.88,-2.95 -6.78,-4.4 -13.43,-7.17 -6.33,-2.64 -7.29,0.35 -14.5,-4.52 -6.58,-4.44 -6.07,-4.26 -14.93,-5.66 -13.83,-2.2 -15.13,-6.7 -29.87,-8.16 -35.49,-3.53 -12.9,-5.85 -71.41,-7.89 -7.6,-0.26 -9.63,-2.07 -15.42,0.19 -16.84,6.59 -3.42,21.57 3.41,29.34l57.95 84.67c3.19,4.11 2.16,1.67 4.89,4.62 9.57,10.33 4.17,6.45 17.96,18.5l10.33 8.69c11.31,10.59 18.89,13.15 28.93,20.19 2,1.4 3.96,2.51 6.13,3.39 2.2,0.89 2.28,0.74 3.55,1.2 12.92,4.63 0.39,2.85 24.86,10 7.74,2.26 11.13,7.09 20.82,7.7 12.08,0.77 6.62,-1.42 15.1,3.91 10.01,6.29 32.29,2.89 48.35,8.7 17.77,6.42 37.06,2.15 55.23,3.39 18.4,1.26 19.35,16.1 29.91,27.14l16.07 21.97c6.73,8.72 6.34,0.31 6.34,14.26 -8.61,-5.77 -13.22,-4.78 -18.52,-8.41 -4.22,-2.9 -1.07,-3.02 -7.74,-4.93 -5.33,-1.53 -7.4,-0.1 -12.25,-2.01 -9.02,-3.56 -2.22,-5.46 -19.19,-7.74 -13.37,-1.8 -9.93,-3.25 -20.19,-6.75 -6.94,-2.37 -15.85,-1.07 -24.5,-2.43 -9.81,-1.54 -11.9,-4.21 -21.12,-5.82 -23.66,-4.15 -78.93,-1.43 -106.26,-1.56 -7.09,-0.03 -19.21,0.8 -23.19,3.75 -5.48,4.07 -4.31,14.85 -1.11,20.63 3.85,6.93 11.79,10.78 16.12,17.17 13.31,19.65 31.28,36.5 48.66,52.76 20.77,19.43 25.36,20.26 44.62,36.2 7.81,6.47 34.12,20.88 42.72,23.83 7.46,2.56 3.95,2.02 9.3,4.96 7.57,4.15 14.21,2.7 20.73,6.21 14.26,7.69 28.48,4.78 43.64,10.24 15.62,5.63 66.33,5.79 85.72,-0.97 16.74,-5.84 46.09,-3.56 66.16,-3.56 3.37,5.03 2.54,4.37 7.23,8.61l55.39 50.79c6.6,6.07 -6.42,-5.09 2.71,2.04 2.83,2.22 2.38,-2.39 4.39,5.13 -5.22,0 -31.53,-1.42 -35.51,-2.52 -15.15,-4.18 -14.1,-5.4 -32.7,-6.91 -18.3,-1.49 -36.85,-0.16 -55.17,1.7 -7.16,0.73 -9.92,2.91 -15.78,4.82 -6.37,2.07 -25.73,1.69 -34.93,3.1 -6.97,1.07 -8.2,3.85 -13.22,5.8 -5.62,2.18 -11.11,1.19 -18.31,2.29 -7.37,1.13 -8.22,3.7 -13.05,5.96 -8.74,4.09 -22.62,1.57 -35.47,12.07 -2.63,2.15 -1.86,2.8 -5.71,5.39 16.39,24.49 25.79,21.93 44.75,39.24l10.67 6.76c0.26,0.2 0.58,0.54 0.83,0.75l23.17 14.87c10.91,5.39 20.77,12.88 32.5,16.63 9.11,2.91 7.8,4.41 13.5,7.1 4.99,2.35 11.58,2.25 16.28,4.32 4.44,1.96 10.03,5.94 15.55,6.64 11.87,1.51 7.5,-1.22 16.83,3.77 5.02,2.68 10.57,4.24 17.61,4.57 15.61,0.72 69.85,1.52 83.19,-0.85 10.68,-1.9 7.76,-3.17 14.81,-5.79 4.32,-1.6 15.4,-1.38 19.74,-2.45 9.81,-2.42 6.57,-4.94 14.02,-6.59l24.33 -7.36c7.9,-3.81 16.99,-4.41 25.1,-8.18 18.99,-8.83 20.53,-2.46 35.57,6.16l39.78 25.19c0.78,0.29 2.7,0.89 3.47,1.28 2.89,1.5 1.41,0.81 3.62,2.72l13.01 7.59c8.41,5.86 2.59,4.38 14.93,7.25 -3.44,4.69 -4.7,4.48 -16.81,2.57 -30.79,-4.83 -18.82,-5.53 -57.68,-5.76 -16.66,-0.1 -22.73,3.21 -37.28,5.51 -5.74,0.91 -14.71,1.27 -18.69,1.91 -11.84,1.88 -7.56,2.84 -16.28,5.91 -5.29,1.86 -13.48,1.91 -17.17,3.43 -3.69,1.52 -2.53,2.57 -6.5,4.6 -1.95,1 -6.56,1.86 -8.67,2.43 -7.54,2.02 -7.8,4.01 -13.79,6.81 -2.96,1.38 -5.33,1.63 -8.11,2.98l-13.13 7.47c-6.15,2.58 -7.57,6.24 -13.39,8.8 -3.59,1.58 -4.49,1.75 -7.26,3.83l-12.57 8.03c-2.61,2.3 -7.59,9.45 -9.37,12.81 5.52,8.24 15.62,12.97 25.02,16.17 7.43,2.53 5.9,4.74 13.33,7.27l56 26.4c11.2,2.46 6.66,-0.9 15.44,5.16 6.34,4.38 21.54,4.07 32.81,8.39 10.75,4.13 43.71,4.95 58.3,2.84 9.61,-1.39 9.93,-5.09 33.41,-7.79 10.36,-1.19 13.42,-6.32 23.33,-8.37 7.59,-1.56 7.34,-4.33 13.69,-6.91 2.24,-0.91 6.55,-1.42 8.78,-2.31 5.06,-2.02 1.7,-0.7 5.48,-4.02 5.51,-4.82 0.2,-1.94 7.39,-3.7 14.19,-3.47 5.3,-3.06 12.94,-7.66 3.89,-2.35 3.28,-0.8 6.93,-2.59 5.48,-2.68 7.13,-5.72 12.59,-8 6.13,-2.56 6.67,-5.5 12.48,-8.13 7,-3.15 13.81,-8.97 19.57,-13.73 0.96,-0.8 3.91,-6.01 15.06,-2.84 7.35,2.09 5.64,4.94 13.48,7.23 6.97,2.05 7.67,3.41 13.78,6.82 5.24,2.91 10.93,2.38 15.5,5.11 7.75,4.63 1.52,3.67 13.98,6.61 9.19,2.17 10.47,6.47 21.43,8.68 0.17,0.03 3.78,0.85 3.86,0.89 8.76,3.18 7.53,7.76 20.77,7.76l0 3.17c-6.55,0.54 -8.56,1.61 -17.45,1.57 -6.89,-0.04 -11.28,0.15 -16.72,2.29 -6.47,2.55 -5.23,4.4 -13.56,5.46 -22.25,2.83 -15.53,6.4 -30.33,9.29 -5.63,1.1 -3.11,-0.35 -7.41,2.09l-6.31 4.78c-6.36,3.06 -8.31,2.63 -16.2,7.57l-41.76 26.38c-1.93,1.72 -0.84,0.8 -2.69,2.07l-11.54 9.06c-4.28,3.03 -6.52,5.58 -10.28,8.74l-20.11 19.5c-0.22,0.24 -0.54,0.58 -0.75,0.83l-3.41 4.52c-1.76,3.97 -1.11,5.03 -1.11,9.98 5.62,3.77 4.9,4.37 14.21,4.8 25.88,1.22 13.83,6.14 52.2,9.6 13.36,1.2 19.82,6.2 33.37,6.24 14.3,0.03 23.22,2.98 38.73,0.63 6.82,-1.03 11.67,-0.28 18.41,-0.6 7.63,-0.37 9.83,-2.82 16.05,-4.56 6.02,-1.67 12.46,-1.76 17.59,-3 8.3,-2.01 7.47,-4.22 13.98,-6.62 6.94,-2.56 8.69,-0.31 14.23,-4.78 4.67,-3.78 -2.44,-1.04 5.39,-4.12 4.33,-1.7 4.08,-0.07 8.71,-2.39l38.48 -26.49c3.24,-2.45 0.73,-0.54 2.55,-2.2l27.85 -22.86c6.17,-5.17 14.69,-17.39 22.3,-17.2 13.51,0.33 20.56,7.57 31.25,9.75 6.11,1.25 10.13,1.41 16.37,2.65l34.26 6.94c9.73,1.3 8.1,1.81 16.07,4.54 11.58,3.96 25.86,2.15 34.61,5 9.38,3.06 12.04,4.69 23.69,6.41 8.13,1.21 3.78,-1.97 7.7,3.39l-50.18 21.13c-6.02,3.39 -1.34,1.89 -7.43,5.26 -7.62,4.22 -16.06,7.44 -22.82,13.63l-46.66 32.57c-4.36,2.68 -0.31,0.1 -3.53,2.81 -4.33,3.65 -10.33,5.53 -14.42,9.35l-7.2 5.48c-7.02,5.5 -11.07,12.21 -16.9,19.56 -10.59,13.36 -1.48,35.45 10.59,44.05 15.81,11.27 40.07,13.58 57.26,3.22 6.69,-4.04 7.38,-6.26 13.62,-10.15l56.65 -41.61c2.88,-1.94 4.87,-2.26 7.18,-3.91 5.37,-3.82 1.28,-2.77 6.24,-6.43l47.68 -26.8c2.74,-0.98 5.32,-1.39 8.59,-2.51 5.09,-1.75 5,-2.33 8.63,-4.04l37.29 -11.83c15.81,-2.65 23.39,-8.08 39.1,-10.03 15.78,-1.95 28.85,-15.24 47.9,-3.77 7.67,4.62 21.06,3.13 29,7.44l19.23 6.12c8.44,1.63 8.94,4.53 16.84,6.93 8.53,2.6 12.45,1.36 19.55,5.8l16.78 6.99c4.78,2.39 3.51,2.91 7.54,5.15 3.63,2.02 4.92,1.47 8.75,3.93 3.14,2.02 2.9,2.94 6.11,4.98 4.32,2.76 4.31,1.35 8.34,4.33l22.35 15.68c0.3,0.18 0.71,0.4 0.99,0.59 7.25,5.05 10.15,10.66 17.8,15.48l13.9 9.87c0.43,0.22 1.74,0.77 2.15,1.02 0.3,0.17 0.7,0.4 0.98,0.59 0.28,0.19 0.65,0.47 0.91,0.67 3.21,2.53 -0.01,0.41 3.14,3.2 3.02,2.69 4.49,2.56 7.72,4.96l5.92 5.18c8.3,6.02 20.61,15.85 31.31,17.81 3.84,0.71 8.13,0.71 12.16,0.65 26.04,-0.4 53.13,-21.54 42.35,-50.43 -2.5,-6.72 -15.07,-20.04 -21.46,-24.5 -4.3,-3 -2.79,-4.19 -8.53,-7.32l-18.41 -11.7c-0.3,-0.18 -0.7,-0.42 -0.98,-0.61l-92.7 -59.43c-5.45,-1.85 -11.04,-6.41 -14.39,-10.97l35.36 -2.66c8.7,-1.74 7.57,-2.8 13.69,-5.33 8.74,-3.6 23.32,-1.33 34.62,-4.99 6.49,-2.1 5.61,-4.04 14.54,-4.48 14.01,-0.7 19.8,-3.43 31.86,-7.75 4.41,-1.58 10.87,-2.33 15.73,-3.41 10.23,-2.27 11.84,1.13 17.96,7.43l12.74 11.03c11.22,8.75 21.35,19.31 34.41,28.98 2.56,1.89 2.22,2.3 5.41,4.1 3.74,2.12 3.74,0.96 7.15,3.94 5.97,5.21 15.07,11.72 23,15.03 6.61,2.76 7.78,5.03 12.17,6.84 17.7,7.28 26.28,8.74 44.48,14.15 10.87,3.22 22.41,3.72 35.93,3.69 19.72,-0.05 43.94,1.77 62.6,-3.95 2.54,-0.78 7.69,-1.73 9.12,-1.97 10.69,-1.82 22.49,-1.45 33.7,-4.32 10.26,-2.63 21.15,-4.93 29.26,-10.36l0 -12.68c-8.98,-6.02 -11.8,-9.56 -19.38,-17.07l-15.33 -13.19c-4.08,-2.72 -1.85,-0.09 -5.88,-3.63l-33.25 -23.8c-9.89,-4.65 -0.78,-4.03 -11.05,-7.97 -19.32,-7.42 -7.21,-6.23 -17.72,-9.22 -10.72,-3.05 -11.44,-7.15 -19.8,-8.72 -11.27,-2.13 -5.76,0.04 -13.56,-5.45 -9.17,-6.47 -8.72,1.34 -29.3,-8.73 -8.58,-4.2 -22.7,-2.89 -32.79,-5.24 5,-3.48 7.72,-1.31 21,-9.11 6.11,-3.59 4.26,-1.04 11.65,-2.61 9.76,-2.1 0.02,-2.54 20.94,-9.17 6.89,-2.18 4.94,-3.5 9.84,-6 4.23,-2.16 7.66,-1.57 12.49,-3.36 5.79,-2.15 5.29,-3.84 10.04,-5.8 3.62,-1.49 7.91,-1.93 10.93,-3.34 8.05,-3.77 1.34,-4.48 9.72,-6.39 9.6,-2.19 20.1,12.33 28.76,16.57 4.49,2.19 0.98,-0.52 5.09,2.84l3.13 3.2c0.24,0.22 0.58,0.54 0.84,0.74l20.1 11.59c6.2,3.18 6.99,6.45 13.63,8.56l5.61 2.31c5.08,3.62 -0.52,2.86 9.69,6.15 8.43,2.72 12.53,6.78 21.12,8.99 9.78,2.52 4.37,2.3 10.47,5.38 7.34,3.69 17,3.59 24.71,6.98 6.83,3 2.85,2 11.59,2.68 23.04,1.78 48.98,4.43 72.48,1.02 2.72,-0.4 10.14,-0.89 14.11,-1.74 5.07,-1.09 6.94,-2.76 11.52,-4.33 8.83,-3.02 14.39,-3.25 22.47,-7.64 5.13,-2.79 6.23,-1.93 12.22,-3.62 6.67,-1.88 4.93,-3.17 10.15,-5.69 3.55,-1.72 7.11,-1.99 10.56,-3.69 5.77,-2.85 2.87,-3.84 9.73,-6.12 6.58,-2.19 5.91,0.02 11.51,-4.33 7.07,-5.5 12.63,-4.71 19.81,-10.3 5.62,-4.37 4.98,-2.21 11.6,-4.24 9.77,-3 7.46,-16.2 1.45,-20.72 -0.16,-0.11 -3.16,-1.78 -4,-2.34 -2.91,-1.94 -1.9,-1.57 -4.37,-3.55 -4.56,-3.63 -5.52,-2.99 -10.37,-5.47 -7.06,-3.61 -11.28,-9.57 -28.99,-16.96 -6.54,-2.73 -4.39,-4 -9.33,-6.51 -5.35,-2.73 -6.26,-0.43 -11.99,-3.86 -5.13,-3.07 -2.35,-3.7 -10.06,-5.8 -2.86,-0.78 -9.35,-1.29 -11.89,-2.37 -5.43,-2.31 -2.18,-3.93 -9.69,-6.17 -10.18,-3.02 -15.47,0.44 -25.87,-5.81 -7.67,-4.62 -15.85,-2.79 -27.18,-2.93 -10.06,-0.12 -17.79,-1.66 -30.04,-1.65 -21.85,0.03 -38.09,1.59 -60.21,1.59l0 -4.76c11.65,-0.26 12.2,-5.49 20.96,-9.15 0.36,-0.15 0.82,-0.25 1.19,-0.4l7.74 -4.94c4.06,-3.07 6.74,-2.99 10.5,-5.34 6.93,-4.34 0.45,-2.93 7.89,-6.37l10.37 -5.48c0.26,-0.21 0.6,-0.52 0.87,-0.72 0.26,-0.2 0.63,-0.5 0.9,-0.69l17.39 -11.13c8.43,-3.61 11.59,-8.09 20.87,-3.87 6.86,3.12 16.67,4.57 23.42,8.37 6.91,3.89 16.63,3.64 22.59,7.52 11.74,7.63 15.84,2.59 26.35,8.5 14.34,8.07 23.03,3.51 33.42,7.78 4.7,1.93 5.08,3.27 11.08,4.76 12.01,2.98 44.57,2.09 60.21,1.7 13.03,-0.33 15.04,-2.92 23.65,-6.46 8.24,-3.39 17.74,0.24 26.91,-4.78 5.53,-3.03 1.35,-2.96 9.16,-5.09 2.98,-0.82 10.39,-1.34 13.37,-2.47 6.59,-2.5 3.61,-3.96 9.69,-6.16 5.15,-1.86 7.19,-0.86 12.15,-3.69 5.11,-2.91 1.8,-2.59 8.96,-5.3 6.91,-2.62 4.99,-1.17 10.58,-5.26 4.13,-3.03 4.88,-3.2 9.29,-4.97 10.98,-4.4 18.13,-12.4 28.47,-17.48 9.3,-4.56 29.94,-22.51 36.04,-25.76 4.99,-2.66 5.02,-1.62 9.44,-6.41 17.56,-19.05 -10.71,-23.94 -24.89,-26.85 -5.62,-1.15 -6.78,-2.5 -11.48,-4.37 -11.87,-4.72 -15.07,-1.78 -34.63,-9.74 -14.1,-5.74 -21.8,0.3 -39.2,-6.75 -19.34,-7.84 -67.48,-4.27 -89.2,-4.36 -25.65,-0.11 -26.47,6.17 -38.13,7.82 -4.04,0.57 -11.33,0.14 -15.7,0.14 2.28,-6.31 11.39,-10.7 16.02,-15.67l17.81 -15.47c3.74,-3.8 0.8,-2.63 5.12,-5.98l17.5 -15.78c0.24,-0.22 0.61,-0.51 0.86,-0.72 0.26,-0.21 0.65,-0.47 0.91,-0.67 2.84,-2.22 1,-0.24 3.61,-2.73 18.38,-17.5 16.62,-8.17 41.09,-7.9 48.22,0.54 33.58,3.65 58.67,6.3 17.41,1.84 44.59,3.49 60.23,-1.61l17.84 -4.34c7.81,-0.94 14,0.24 20.07,-2.11 7.31,-2.83 4.73,-4.63 14.31,-6.29 10.05,-1.74 8.83,-0.8 16.37,-5.81 6.44,-4.28 9.93,-2.41 15.64,-6.55 4.22,-3.07 1.39,-2.56 6.46,-4.63 3.74,-1.52 4.94,-0.82 8.51,-2.58 7.58,-3.74 -0.87,-1.48 12.35,-8.26l19.57 -13.7c3.64,-3.15 3.37,-2.12 6.59,-4.5 4.65,-3.43 1.54,-2.13 5.81,-5.28 3.16,-2.33 2.56,-0.9 6.61,-4.48l19.14 -17.31c0.34,-0.31 1.33,-1.19 1.67,-1.5l12.63 -12.72c8.56,-9.87 18.54,-18.36 26.61,-28.85l14.52 -17.18c4.85,-3.63 6.69,-9.08 8.2,-15.57 -6.28,-9.39 -7.74,-6.03 -19.92,-8.61l-23.51 -5.01c-20.95,-2.98 -73.49,-2.63 -95.56,4.56 -12.85,4.18 -28.5,0.7 -39.8,4.56 -5.52,1.89 -4.84,3.28 -9.28,4.98 -3.7,1.42 -9.25,1.3 -13.89,1.96 -16.05,2.28 -10.28,5.78 -20.48,8.04 -6.23,1.38 -6.81,-0.24 -12.13,2.13 -8.71,3.89 -2.42,3.57 -19.82,9.11 -13.01,4.15 -0.79,-7.4 1.93,-11.15l9.7 -12.49c0.71,-1.23 2.35,-4.48 2.82,-5.11l9.42 -11.18c11.86,-13.41 8.9,-20.59 31.65,-19.3 6.36,0.36 18.3,-0.56 27.76,-0.52 24.85,0.1 29.22,-7.01 49.1,-7.94 12.5,-0.59 15.85,1.93 25.05,-3.47 11.79,-6.91 12.22,-2.35 23.83,-6.28 9.45,-3.2 -0.89,-2.13 20.49,-8.04 6.59,-1.82 3.93,-2.1 8.96,-5.3 4.42,-2.81 6.93,-2.26 11.19,-4.66l34.98 -23.66c3.26,-2.44 5,-3.52 7.85,-6.41 11.85,-12 23.59,-23.39 34.44,-36.87l9.11 -13.07c1.95,-2.19 1.58,-2.15 3.24,-4.68 2.62,-3.96 4.04,-4.31 6.52,-7.74 3.11,-4.3 2.38,-6.45 5.43,-10.42l5.4 -7.28c3.2,-5.87 3.31,-4.69 6.58,-9.27 3.05,-4.27 2.11,-5.79 4.74,-9.52 0.19,-0.27 0.51,-0.61 0.72,-0.87l7.49 -9.94c4.08,-5.66 8.38,-8.76 7.4,-17.79 -0.92,-8.54 -7.8,-11.63 -16.73,-10.64l-78.65 8.56c-9.66,3.22 -11.06,5.93 -21.86,6.67 -11.05,0.74 -12.64,5.94 -21.98,8.13 -16.74,3.93 -10.42,5.1 -20.18,8.35 -23.19,7.69 -6,5.21 -20.52,9.58l-9.3 4.96c-5.27,4.49 -3.63,2.2 -9.29,4.98l-22.26 15.88c-14.24,10.78 -9.43,-2.58 -4.47,-9.33 3.89,-5.3 2.94,-2.87 5.59,-10.28 3.09,-8.67 3.61,-4.8 9.34,-19.18 1.82,-4.57 2.68,-3.45 5.38,-8.89 4.55,-9.16 2.01,-6.78 10.72,-11.46 14.17,-7.61 15.22,-3.81 29.56,-6.89 9.63,-2.06 3.23,-1.94 10.22,-5.63 8.19,-4.32 15.69,0.05 23.23,-5.3 10.33,-7.31 12.26,-3.22 21.2,-7.33 8.37,-3.84 -0.64,-2.28 8.58,-5.68 4.11,-1.52 7.2,-0.94 11.03,-3.22 6.66,-3.99 -0.57,-2.78 8.32,-5.95 17.29,-6.16 6.91,-4.96 20.06,-10.04 7.32,-2.83 13.73,-8.5 19.43,-13.85l21.61 -18c5.9,-5.98 9.12,-9.16 14.42,-15.69l12.96 -15.57c2.78,-3.11 2.7,-4.97 5.67,-8.59 4.03,-4.92 2.74,-0.87 5.55,-8.72 2.62,-7.3 5.59,-7.5 7.97,-12.63 1.82,-3.95 2.92,-9.15 5.98,-13.03 3.65,-4.62 3.03,-8.39 5.23,-13.79 2.13,-5.23 3.48,-3.57 5.77,-8.49 1.91,-4.09 1.02,-6.99 2.5,-11.77 2.41,-7.78 4.09,-2.37 8.85,-21.26 1.76,-6.98 2.02,-4.09 5.19,-9.07 3.33,-5.25 1.57,-4.89 3.09,-11.17 2.74,-11.31 7.51,-2.95 7.51,-22.6 -12.29,-8.24 -31.54,-4.8 -44.96,2.57 -9.49,5.21 -6.01,-2.36 -29.27,8.76 -4.67,2.24 -9.93,2.48 -14.52,4.49l-88.13 54.48 -19.08 18.96c-2.37,2.55 2.33,2.22 -5.26,4.25 -3.92,-8.47 4.4,-16.5 6.44,-23.68 1.16,-4.09 1.76,-11.05 2.67,-14.76 1.57,-6.42 3.2,-7.53 4.97,-12.46 3.73,-10.37 1.98,-15.76 11.84,-21.44 6.65,-3.82 6.98,-1.09 14.67,-2.76 8.38,-1.81 4.81,-3.46 11.24,-6.19 4.3,-1.83 8.46,-1.54 12.87,-2.99 6.49,-2.12 6.94,-4.44 17.75,-7.6 3,-0.88 0.96,0 3.49,-1.27l7.53 -5.15c2.82,-1.42 3.56,-1.22 6.99,-2.52 8.26,-3.1 8.75,-6.4 16.23,-9.13 5.58,-2.03 6.02,-3.89 10.63,-6.8 2.47,-1.56 3.78,-1.8 6.13,-3.39l51.72 -49.7c6.31,-8.36 13.31,-15.51 17.46,-25.32 2.07,-4.89 0.59,-1.9 3.73,-5.78 6.52,-8.04 21.2,-49.83 24.08,-61.5 2.52,-10.22 6.23,-15.99 7.89,-26.98 1.49,-9.84 -1.78,-10.94 5.67,-11.76l0 -38.04c-9.1,0.21 -6.45,2.98 -14.65,4.37 -12.08,2.04 -6.41,-1.82 -15.93,4.67 -5.74,3.91 -8.97,3.37 -15.6,5 -11.93,2.94 -2.26,4.4 -13.07,7.52 -10.22,2.95 -5.23,-0.66 -13.26,5.77 -5.9,4.72 -8.46,2.8 -13.88,6.71 -12.05,8.7 -30.17,17.35 -41.13,28.59l-11.1 9.5c-2.22,2.06 -3.57,2.81 -5.98,5.11l-20.36 20.85c-4.73,4.5 -5.47,6.05 -9.74,10.86 -2.56,2.87 -2.21,2.37 -4.24,5.26 -0.87,1.23 -0.9,1.55 -1.93,2.82l-1.51 1.66c-5.6,5.98 -4.56,10.62 -12.49,11.28 0,-11.29 3.31,-17.76 3.18,-31.68 -0.31,-32.93 4.48,-31.7 6.24,-47.65 0.7,-6.31 0.81,-9.12 2.21,-15.22 2.41,-10.52 0,-4.29 7.54,-9.89l63.06 -52.63c1.6,-1.67 2.73,-3.06 4.54,-4.97l45.43 -62.34c3.47,-5.46 2.18,-6.73 4.69,-12.75 2.13,-5.1 4.56,-6.12 6.24,-11.19 1.78,-5.33 0.72,-10.03 2.34,-15.1 2.12,-6.64 4.46,-6.05 6.06,-12.96 2.93,-12.66 2.3,-132 -1.01,-138.91 -5.18,-2.48 -10.06,-1.58 -17.43,-1.58 -6.02,9 -10.26,8.3 -17.83,15.44l-18.86 16c-0.22,0.23 -0.51,0.61 -0.74,0.84 -2.64,2.69 -0.31,0.56 -2.45,2.31l-8.25 7.6c-3.47,3.39 -2,0.95 -5.15,4.36l-23.19 27.53c-11.08,11.5 -32.18,48.98 -38.57,64.44 -2.87,6.92 -0.4,8.4 -5.39,12.05l-9.57 -63.34c-0.06,-5.74 0.45,-11.57 -0.15,-17.28 -0.85,-8.24 -4.75,-15.95 -2.58,-20.5 0.02,-0.03 1.34,-2.12 1.75,-2.8l19.88 -21.46c2.62,-2.74 3.09,-2.46 4.98,-4.53l23.51 -30.37c1.97,-2.38 0.28,-0.15 2.39,-2.37 2.47,-2.6 0.41,-0 2.26,-2.49l34.14 -59.36c3.09,-5.72 2.31,-8.1 3.81,-13.62 1.97,-7.23 3.52,-5.67 5.75,-13.27 3.25,-11.06 1.25,-23.41 3.87,-32.58 2.85,-9.94 5.09,-20.38 3.07,-34.26 -2.31,-15.83 -4.37,-10.7 -4.34,-32.11 0.02,-11.44 -3.03,-21.06 -6.66,-29.79 -2.61,-6.29 -2.43,-23.33 -4.77,-31.68 -1.28,-4.56 -3.15,-10.02 -4,-15.01 -1.68,-9.86 -0.8,-7.2 -5.22,-13.81l-9.51 0 -50.98 61.54c-5.72,5.76 -16.49,26.54 -20.57,34.89 -2.44,4.98 -1.89,8.6 -5.19,13.83 -4.34,6.87 -4.09,3.21 -5.53,13.48 -1.58,11.33 -1.67,4.41 -6.04,12.98 -4.36,8.55 0.05,16.02 -7.72,30.32 -4.02,7.41 -3.78,23.11 -3.78,34.26l-3.17 0c0,-9.41 -9.58,-45.15 -12.68,-52.31 -4.9,-11.31 -4.15,-15.31 -7.44,-24.26 -1.93,-5.27 -3.72,-5.54 -5.48,-10.38 -2.97,-8.2 -3.62,-18.33 0.98,-26.43l42.04 -72.07c2.37,-8.12 0.68,-4.76 5.14,-10.71 5.5,-7.35 1.81,-10.41 9.32,-22.37 3.29,-5.24 2.26,-6.83 3.58,-13.85 1.99,-10.61 7.16,-12 8.52,-23.19 3.15,-26.02 -1.09,-4.37 5.72,-27.56 4.32,-14.69 6.63,-57.08 -1.09,-74.59 -1.99,-4.5 -3.47,-6.41 -4.07,-11.78 -1.81,-16.21 0.02,-14.14 -6.67,-26.61 -3.5,-6.51 -2.64,-18.02 -7.44,-24.26 -6.55,-8.54 -1.08,-8.54 -10.03,-23.25 -2.69,-4.43 -2.18,-6.77 -4.08,-11.76 -2.01,-5.28 -3.69,-5.66 -5.65,-10.2 -1.56,-3.59 -2.73,-8.57 -4.05,-11.8 -2.43,-5.96 -3.95,-6.28 -5.91,-11.52 -4.17,-11.1 -2.94,-12.7 -9.89,-21.81 -14.54,-19.02 -20.34,4.72 -25.42,11.68 -4.09,5.6 -3.4,2.04 -6.24,9.61l-26.6 54.22c-2.26,9.32 -0.44,5.29 -4.77,12.66 -5.4,9.2 -2.44,16.89 -6.86,24.84 -4.59,8.26 -6.11,16.25 -6.46,26.82 -0.46,14.11 -7.97,16.2 -7.96,57.03 0,16.88 2.42,53.02 0,63.4 -4.76,-3.5 -2.39,-2.03 -4.58,-8.1 -2.85,-7.94 -6.19,-10.29 -9.06,-17.89l-9.17 -17.77c-1.44,-3.21 -1.34,-2.44 -2.44,-3.9l-3.38 -4.55c-2.09,-4.11 -1.18,-5.5 -4.38,-9.88 -3.23,-4.42 -3.15,-2 -5.95,-8.31l-36.42 -60.26c-2.91,-6.54 -2.17,-3.96 -5.43,-8.83 8.46,-5.67 4.53,-9.31 10,-16.94 4.1,-5.72 2.33,-0.8 5.26,-9 2.86,-8 6.57,-10.12 8.83,-18.11 2.3,-8.11 7.16,-11.57 8.71,-19.81 2.85,-15.1 5.53,-6.43 7.79,-19.15 0.81,-4.55 1.01,-9.76 1.76,-12.51 2.54,-9.41 6.61,-8.13 6.81,-21.72 0.18,-12.35 4.96,-77.59 -3.69,-91.52 -4.4,-7.08 -2.86,-15.85 -6.34,-22.19 -3.78,-6.87 -2.96,-0.53 -5.48,-8.78 -6.37,-20.75 -5.04,-11.11 -8.49,-20.04 -5.45,-14.13 -6.84,-11.07 -9.01,-17.93 -4.24,-13.4 -6.33,-8.27 -9.52,-19.01 -4.47,-15.08 -3.93,-2.19 -8.94,-19.57 -2.29,-7.92 -9.85,-10 -16.7,-11.83 -6.13,9.16 -11.33,16.89 -15.64,27.15 -2.08,4.97 -0.92,2.07 -3.76,5.76 -5.48,7.11 -2.26,7 -5.26,13.76 -2.52,5.67 -4.75,2.95 -6.65,10.78 -1.46,6.03 -0.53,9.08 -3.39,14.05 -10.02,17.45 -3.42,17.57 -8.02,28.43 -5,11.78 -6.57,11.66 -6.43,28.44l-1.61 52.4c0.16,12.96 6.09,41.39 1.65,50.66 -4.93,-1.78 -5.87,-7.82 -9.89,-12.3l-62.25 -74.04c-3.66,-3.58 -1.77,-2.82 -4.67,-6.42 -2.28,-2.83 -4.58,-3.77 -7.17,-5.5 0,-20.89 6.53,-20.17 6.31,-41.24 -0.23,-21.98 3.35,-44.45 -0.12,-69.57 -0.76,-5.48 -4.52,-10.46 -6.26,-17.51 -2.24,-9.1 -0.57,-10.23 -5.34,-18.43 -4.33,-7.46 -3.03,-11.17 -7.69,-17.67l-11.12 -18.99c-11.08,-15.95 -22.13,-30.9 -34.97,-44.27l-21.61 -25.93c-6.63,-9.48 -10.05,-14.26 -23.78,-14.26 -9.11,13.61 -3.59,19.04 -7.86,31.76 -6.2,18.5 -6.45,6.76 -6.4,34.81 0.04,23.65 -1.97,16.34 -0.09,38.12 1.15,13.28 -1.66,27.48 0.65,40.56 1.88,10.59 5.68,9.93 7.18,19.77 4.61,30.39 6.04,15.51 9.28,31.93 2.28,11.57 17.67,26.85 0.63,21.92 -7.46,-2.16 -5.99,-5.44 -18.24,-9.06 -9.46,-2.79 -8.94,-5.76 -20.32,-8.2 -9.06,-1.94 -10.62,-5.26 -19.74,-7.19 -6.56,-1.39 -16.92,-1.82 -25.22,-3.3 -8.98,-1.59 -12.88,-4.1 -22.77,-4.17 -15.76,-0.11 -23.7,-0.16 -38.19,3.15 -20.45,4.67 -20.97,-0.23 -44.73,9.14 -3.74,1.48 -7.15,1.82 -10.11,4.26 -6.56,5.38 -2.07,15.04 2.82,18.22l56.52 44.9c3.14,1.96 2.07,0.58 5.26,2.67 3.29,2.15 3.15,3.48 6.99,5.69 4.1,2.36 5.02,1.67 9.41,4.86 5.8,4.22 12.99,5.02 18.5,8.44 16.17,10.04 13.52,1.35 30.54,10.66 10.51,5.75 64.11,5.16 75.69,0.88 5.42,-2 3.68,-3.05 9.65,-4.61 18.93,-4.97 23.9,-2.48 31.52,5.7 0.22,0.24 0.56,0.57 0.78,0.8 3.54,3.76 3.9,5.01 7.39,8.46l35.96 41.69c4.13,4.18 4.74,2.29 4.74,11.1 -6.63,-0.56 -5.09,-1.78 -11.32,-2.94 -21.6,-4.01 -88.81,-3.38 -103.26,2.44 -11.62,4.67 -23.73,4.81 -35.25,10.71 -6.68,3.42 -15.86,5.11 -22.56,9.13 -5,3 -12.44,5.41 -25.83,13.8 -2.03,1.27 -2.47,1.89 -4.61,3.31 0,21.57 6.12,12.27 36.16,30.4 5.87,3.54 8.73,4.19 14.98,7.2 6.17,2.97 6.91,5 14.83,7.35l15.43 6.75c5.93,2.56 11.38,2.24 17.72,4.46 6.95,2.45 7.76,4.07 16.32,5.86 17.98,3.74 65.39,2.98 81.77,-4.22 5.07,-2.23 0.98,-1.3 8.28,-2.81 20.46,-4.24 12.94,-4.26 24.98,-8.3 8.11,-2.72 9.41,-1.27 16.63,-5.55 7.17,-4.25 6.35,-4.05 15.91,-6.28l89.11 137.52c5.08,12.78 9.12,4.9 9.12,24.16l-29.39 -19.74c-3.49,-2.69 1.65,0.28 -3.53,-2.81l-22.21 -11.07c-6.45,-1.81 -8.02,-5.54 -14.51,-7.68 -7.67,-2.53 -9.19,-0.3 -16.43,-5.75 -7.72,-5.81 -17.17,-1.75 -27.11,-6.17 -4.22,-1.88 -1.54,-1.89 -7.02,-4.07 -13.99,-5.55 -64.35,-2.9 -85.78,-2.95 -6.18,-0.01 -17.36,-0.75 -20.76,1.42 -4.73,3 -3.74,13.46 -1.48,17.65 1.95,3.59 2.92,2.99 5.38,5.72 3,3.34 1.61,2.89 4.95,6.14 11.02,10.74 20,24.61 30.51,36.05l21.49 22.88c2.2,2.41 3.69,3.11 6.07,5.02 2.5,2 3.41,3.36 5.89,5.21 2.57,1.93 4.25,2.35 6.81,4.28l45.91 25.4c7.22,1.76 11.83,7.42 20.47,8.05 22.51,1.65 19.27,7.98 36.3,8.07 29.56,0.17 59.23,-0.07 88.8,-0.07 2.29,4.33 1.6,3.06 4.44,6.65 5.52,6.96 2.39,10.06 6.76,17.01 4.67,7.42 1.94,-1.17 5.01,7.67l6.63 17.14c4.54,7.43 2.54,13.25 6.41,18.94 4.24,6.23 1.47,-2.46 4.64,6.46 1.42,4.02 0.76,6.31 1.92,10.76 2.25,8.61 5.08,7.11 7.36,16.41 1.9,7.73 2.27,11.21 6.14,17.64 3.42,5.67 4.12,13.81 2.97,19.21l-21.41 -21.38c-7.07,-7.48 -19.22,-19.98 -28.03,-24.27l-19.24 -14.04c-3.82,-3.16 -6.87,-2.54 -10.93,-4.92 -4.59,-2.69 -0.26,-0.17 -3.45,-2.89 -6.34,-5.42 -8.64,-3.14 -14.68,-7.51 -3.52,-2.54 -1.07,-2.01 -5.47,-4.04 -3.3,-1.52 -4.7,-1.02 -8.91,-2.18 -8.6,-2.36 -5.32,-5.78 -14.81,-7.37 -16.88,-2.83 -18.7,-9.02 -34.7,-9.67 -16.33,-0.67 -20.49,-5.14 -35.45,-7.33 -13.37,-1.96 -29.86,-0.61 -43.75,-0.61 -6.26,7.22 -4.52,9.38 -4.76,19.02l71.32 91.91c4.88,4.06 25.13,22.66 30.33,25.13l11.29 6.14c6.38,5.04 6.82,2.37 13.55,5.46 10.57,4.86 2.61,3.25 19.16,7.78 5.2,1.43 2.22,0.52 6.56,2.95 14.15,7.9 17.33,2.3 30.44,6.01 13.26,3.76 10.96,6.91 29.63,6.81 41.68,-0.2 53.89,-5.82 58.59,14.3 2.33,9.99 2.23,21.32 5.54,30.91 5.33,15.44 3.85,29.85 8.19,45.7 3.74,13.66 8.85,33.58 5.37,48.52l-3.17 0c-0.83,-3.56 -1.43,-5.28 -3.21,-7.89l-63.1 -63.68 -38.05 -25.33c-3.65,-2.36 -5.17,-1.8 -9.39,-3.29 -5.93,-2.09 -3.05,-1.96 -7.77,-4.91 -5.6,-3.51 -12.11,-3.64 -18.22,-7.13 -7.98,-4.55 -20,-4.88 -28.83,-9.2 -6.15,-3.01 -2.5,-1.58 -10.3,-2.38 -10.67,-1.1 -22.56,-1.81 -32.71,-5.36 -8.15,-2.85 -23.04,-2.98 -22.07,10.04 0.42,5.55 5.59,10.69 7.95,16.81 3.61,9.39 5.76,8.01 8.82,16.54 2.65,7.36 6.01,8.97 8.73,16.63l23.85 39.54c8.16,12.77 19.28,22.36 29.83,33.56l21.11 16.92c13.73,7.85 15.41,12.03 32.93,17.78 10.11,3.32 1.48,0.81 7.67,5 5.53,3.75 13.61,2.58 19.8,5.56 7.39,3.56 6.7,6.08 19.07,6.29 5.2,0.09 7.04,-0.52 11.78,0.89 6.12,1.83 3.16,1.93 8.41,4.28 11.7,5.22 32.4,1.07 46.38,4.32 0,40.76 2.15,81.02 1.65,122.11l-4.7 36.28 -13.66 -32.3c-1.31,-2 -0.19,0.45 -2.74,-3.6 -1.14,-1.81 -1.16,-2.06 -2.07,-4.26l-27.89 -43.43c-0.2,-0.27 -0.49,-0.63 -0.7,-0.89l-34.43 -36.88c-0.24,-0.22 -0.59,-0.54 -0.82,-0.76l-27.83 -22.88c-4.14,-2.81 -4.12,-1.38 -8.31,-4.37 -10.64,-7.58 -29.72,-18.79 -41.87,-23.1 -3.65,-1.3 -6.14,-1.42 -9.96,-2.72 -11.26,-3.83 -4.44,-5.37 -19.76,-7.18 -11.9,-1.4 -13.58,-12.05 -27.15,-2.96 0,10.22 -1.04,18.52 2.68,25.85 2.58,5.1 3.54,3.76 4.84,9.43 2.22,9.67 1.52,14.44 6.28,22.25 1.48,2.44 1.02,1.13 1.97,4.37 1.89,6.44 1.53,12.59 4.63,17.56 6.59,10.57 4.28,13.59 8.17,20.35 2.62,4.55 3.26,2.59 5.56,8.7 4.2,11.11 5.47,9.47 10.02,18.51 1.3,2.59 0.75,1.89 2.38,3.96 0.29,0.37 1.25,1.27 1.55,1.62 5.16,6.08 9.8,15.21 16.22,21.81l4.91 4.61c4.19,4.61 1.97,2.96 7.05,7.21l32.15 24.9c4.26,2.71 5.51,1.77 9.75,4.51 4.96,3.2 2.18,3.31 8.36,5.89 2.88,1.21 7.3,1.88 10.52,3.74 7.22,4.17 4.2,4.07 14.17,6.43 8.23,1.95 4.45,5 14.7,7.48 2.97,0.72 8.63,0.87 12.01,2.25 5.58,2.27 3.14,3.61 8.52,5.75 4.36,1.73 7.53,0.87 12.81,1.45 16.11,1.77 7.55,3.83 17.81,10.71 -3.2,13.72 -6.17,30.31 -6.34,44.37 -0.18,14.17 -4.41,19.48 -6.31,31.72 -1.74,11.22 -1.72,24.5 -4.93,34.69 -3.83,12.17 -4.67,28.41 -8.89,41.83 -1.92,6.1 -3.89,15.28 -8.38,18.57 -3.28,-6.85 -0.41,-13.22 -2.17,-21.61 -2.72,-13 -3.41,1.98 -9.03,-25.83 -1.74,-8.64 -6.16,-7.74 -7.65,-16.12 -1.32,-7.44 -4.04,-10.48 -7.27,-16.51l-8.29 -15.48c-8.22,-12.4 -2.68,-8.44 -19.01,-28.54 -2.6,-3.2 -2.72,-4.59 -4.99,-7.69 -8.19,-11.24 -19.05,-21.96 -29.31,-30.91l-2.37 -2.39c-2.28,-2.13 -1.19,-1.26 -3.5,-2.84l-27.34 -20.2c-9.72,-6.11 -19.92,-13.87 -30.12,-17.43 -10.56,-3.68 -5.45,-5.13 -18.5,-2.09 -5.21,10.87 -0.77,18.28 2.23,29.47 5.1,19.06 -1.61,44.66 6.22,61.94 4.8,10.61 3.38,7.63 4.27,21.08 0.75,11.16 5.28,10.83 8.1,18.85 1.19,3.37 0.99,6.63 2.48,10.2 2.18,5.24 3.39,3.55 6,8.26 1.89,3.41 1.78,5.72 3.79,8.89 2.44,3.85 2.98,2.77 5.98,8.28 3.89,7.15 23.11,31.02 29.17,35.81l13.97 11.38c0.24,0.22 0.54,0.59 0.78,0.81 4.65,4.46 3.88,2.7 8.12,6.14 6.72,5.45 14.97,12.47 23.23,16.39l6.26 4.83c0.24,0.22 0.54,0.59 0.79,0.8 0.24,0.22 0.57,0.55 0.83,0.75l17.04 9.89c8.77,3.72 8.68,6 16.02,10.92 -0.48,5.76 -1.85,14.83 -5.23,20.13 -4.39,6.89 -3.61,11.54 -5.92,19.43 -2.25,7.65 -5.64,5.99 -7.63,17.74 -2.32,13.69 -5.15,8.07 -7.8,17.56 -2.24,8.04 -2.58,11.96 -6.97,18.39 -3.75,5.48 -3.33,12.5 -7.21,18.15 -3.69,5.37 -3.49,12.19 -7.21,18.15 -1.86,2.98 -3.07,3.39 -4.81,7.87 -1.17,3 -1.98,7.05 -2.67,10.01 -0.84,-1.21 -0.84,-0.69 -1.76,-3 -0.94,-2.37 -0.89,-1.74 -1.3,-5.04 -0.37,-2.94 -0.15,-7.85 -0.13,-10.96 0.1,-13.37 1.65,-32.6 -1.02,-44.94 -1.93,-8.93 -5.56,-8.31 -6.69,-17.08 -2.05,-15.85 -0.57,-13.19 -7.54,-25.75 -3.34,-6.04 -1.24,-12.36 -5.78,-17.99 -3.66,-4.53 -2.31,-0.39 -4.17,-6.92 -4.01,-14.01 -4.37,-7.76 -8.16,-15.61 -1.59,-3.27 -0.95,-4.83 -2.78,-8.31 -2.41,-4.57 -3.22,-3.54 -5.06,-6.04l-3.68 -7.41c-3.57,-6.24 -1.97,-1.51 -5.69,-6.99l-8.61 -11.99c-0.22,-0.25 -0.53,-0.59 -0.74,-0.85l-20.52 -25.44c-1.73,-1.81 -0.62,-0.51 -2.47,-2.28 -0.24,-0.22 -0.59,-0.53 -0.82,-0.76 -0.23,-0.23 -0.57,-0.56 -0.8,-0.79l-1.52 -1.65c-2.76,-2.87 -3.86,-4.26 -7.79,-5.07 -20.1,-4.16 -13.84,16.31 -17.78,29.16 -8.2,26.79 -3.59,14.15 -7.82,38.14 -2.63,14.89 -5.78,24.23 -5.7,40.26 0.07,13.44 -1,34.6 1.09,44.89 1.8,8.83 13.11,46.48 17.33,52.4 4.22,5.93 1.5,-0.83 4.61,6.49 7.69,18.12 2.72,5.97 11.94,22.93l12 16.53c3.96,4.07 3.09,5.45 7.58,9.85l32.61 38.71c-2.13,9.14 -15.32,32.67 -20.91,42.49l-3.46 4.46c-5.9,7.4 -9.55,16.2 -14.35,23.69 -2.41,3.78 -3.46,3.28 -5.58,7.1 -2.5,4.49 -1.21,5.14 -4.71,9.56 -0.2,0.26 -0.55,0.58 -0.76,0.83 -7.26,8.57 -12.18,18.45 -18.74,27.22l-10 12.19c-3.02,4.18 0.59,4.33 -5.48,8.78 0,-4.02 -0.56,-5.22 0.93,-8.57 2.33,-5.28 5.85,-2.17 7,-24.7 1,-19.52 2.56,-62.9 -5.33,-78.69 -3.31,-6.61 -2.41,-8.67 -3.5,-17.11 -1.5,-11.7 0.67,-8.88 -4.77,-17.42 -5.39,-8.45 -2.3,-6.34 -4.45,-16.15 -2.08,-9.45 -4.58,-4.98 -7.34,-13.26l-6.47 -14.13c-3.78,-5.83 -1.94,-8.04 -7.38,-14.8l-7.38 -13.23c-1.91,-2.76 -2.66,-2.79 -4.24,-5.26l-12.43 -19.28c-3.77,-5.67 -6.68,-6.24 -15.94,-6.24 -5.32,7.95 -4.18,11.2 -7.77,17.59 -6.72,11.94 -3.06,7.38 -6.6,18.76 -2.02,6.49 -5.93,11.17 -7.43,17.93 -1.13,5.03 -0.73,5.43 -2.59,10.09 -1.86,4.65 -2.81,5.07 -4.2,10.07 -1.94,7 -2.44,13.56 -4.7,20.66 -7.41,23.31 -7.36,47.77 -4.74,71.33 1.91,17.15 5.85,34.93 13.13,50.27 2.89,6.08 3.5,12.2 7.17,18.19l18.86 33.44c3.41,4.36 2.57,5.35 5.05,9.22l22.34 29.96c-7.84,2.09 -2.19,1.48 -7.36,8.49l-75.07 83.46c-2.47,2.57 -4.53,8.44 -7.93,5.04 -5.63,-5.62 8.8,-20.8 9.49,-35.23 0.91,-18.9 8.12,-16.21 7.98,-41.15 -0.06,-10.58 0.15,-21.22 0.06,-31.78 -0.05,-6.19 -0.47,-9.03 -1.88,-13.96l-4.99 -10.86c-3.74,-9.98 0.42,-14.04 -6.99,-26.29 -3.92,-6.49 -3.43,-17.61 -8.04,-23.66 -4.6,-6.03 -2.87,-10.77 -6.31,-17.46 -4.1,-7.99 3.23,4.83 -1.25,-1.92 -4.52,-6.81 -7.52,-17.06 -11.24,-25.2 -5.18,-11.29 -4.09,-13.72 -19.57,-13.72l-24.35 42.21c-2.69,7.4 -1.79,3.82 -4.92,9.35l-20.53 60.3c-2.52,12.29 -1.05,25.94 -2.65,38.55 -2.1,16.45 -5.88,15.09 -1.27,36.48 1.97,9.16 0.69,15.09 1.52,25.43 1.78,22.08 7.28,29.49 9.5,45.98 1.09,8.15 3.56,14.29 6.21,20.72 2.14,5.19 4.93,14.52 6.71,20.33 3.13,10.21 -3.79,17.26 -11.19,22.64l-80.06 64.15c-0.26,0.2 -0.58,0.54 -0.83,0.75 -2.96,2.5 -0.31,0.87 -4.37,3.55 -4.35,2.87 -23.22,18.93 -15.6,2.11 1.99,-4.38 1.3,-2.41 2.62,-3.98 1.69,-2.02 1.96,-1.27 3.73,-4.22 2,-3.32 2.13,-6.79 4.05,-10.22 2.5,-4.46 3.61,-2.9 5.56,-8.7 1.95,-5.81 1.48,-9.75 4.84,-14.18 4.9,-6.47 4.26,-19.3 6.24,-28.63 2.24,-10.61 9.69,-23.48 4.88,-49.43 -3.59,-19.41 -6.62,-14.13 -7.35,-46.53 -0.31,-14.01 -0.63,-10.77 -5.16,-21.79 -2.64,-6.41 -2.65,-16.98 -4.33,-24.19 -5.78,-1.35 -13.17,-1.77 -17.74,2.85l-12.02 13.35c-2.36,2.58 -3.86,3.83 -6.28,6.39l-21.49 26.06c-4.57,6.91 -13.52,16.81 -16.58,24.63l-3.38 6.13c-0.2,0.26 -0.56,0.57 -0.76,0.83l-12.94 26.69c-2.06,8.39 0.51,3.11 -3.44,9.23 -4.23,6.56 -6.41,20.26 -9.9,28.14 -2.55,5.76 -5.19,35.1 -6.48,44.24 -8.55,60.84 2.54,59.73 3.26,92.02 -6.13,3.24 -9.18,7.54 -15.48,9.87 -7.6,2.82 -7.9,5.56 -17.36,9.58l-23.78 14.25c-2.22,1.37 -8.02,3.06 -10.19,4.07 -8.62,4 -4.11,3.71 -16.76,8.6 -6.61,2.55 -3.48,1.56 -8.09,4.59l-17.76 9.19c-3.39,1.91 -5.41,1.94 -9.24,3.43 -8.58,3.34 -6.6,7.46 -19.2,7.74l0 -3.17c4.76,-1.11 7.27,-2.42 9.88,-5.97 0.2,-0.27 0.42,-0.7 0.62,-0.96 0.2,-0.26 0.46,-0.66 0.68,-0.91l23.02 -24.53c8.25,-11.01 8.29,-14.46 15.96,-23.65 2.93,-3.51 2.08,-3.49 3.53,-7.56 3.09,-8.7 5.54,-8.44 9.12,-19.41 3.67,-11.22 5.31,-7.55 7.57,-22.54 1.18,-7.8 1.79,-8.9 4.34,-14.69 5.21,-11.8 1.8,-21.95 3.01,-36.61 1.11,-13.44 5.22,-65.11 -0.08,-76.17 -5.18,-2.49 -10.06,-1.59 -17.43,-1.59 -7.01,10.48 -18.41,13.85 -28.11,22.59 -4.53,4.08 -8.88,7.67 -13.78,11.57l-20.07 19.55c-7.83,7.94 -25.39,27.73 -29.26,35.71 -4.07,8.37 -11.98,17.18 -15.42,24.2 -1.66,3.4 -1.66,5.79 -3.49,9.19l-15.68 36.63c-4.13,17.27 -6.36,15.78 -10.66,41.64l-6.23 46.07c-0.63,8.29 -1.48,14.8 -1.48,25.46 -4.24,2.25 -3.04,1.43 -6.69,4.41 -5.93,4.85 -12.02,4.21 -18.96,6.39 -9.31,2.93 -7.13,5.38 -18.02,7.33 -12.65,2.27 -14.41,6.46 -28.79,9.24 -7.11,1.37 -11.1,4.22 -17.41,6.36 -6.39,2.17 -13.37,2.44 -20.5,4.85 -13.7,4.63 -25.43,8.96 -41.75,8.96l0 -4.76c15.94,-3.71 8.67,-1.89 18.35,-8.59l42.77 -31.7c8.9,-9.73 19.83,-18.79 26.89,-30.17 6.15,-9.93 12.61,-18.45 16.77,-29.2 2.58,-6.65 5.26,-8.39 7.94,-17.41 2.15,-7.21 3.78,-12.05 6.34,-19.03 3.42,-9.33 3.81,-20.11 6.88,-31.15l6.84 -31.19c1.81,-9.82 0.52,-2.76 3.5,-9.34 1.5,-3.34 1.66,-6.39 0.48,-9.67 -1.49,-4.19 -2.59,-5.44 -6.99,-6.09 -6.69,-0.98 -6.56,0.84 -10.26,2.29 -6.92,2.69 -13.81,3.59 -19.3,7.66 -4.37,3.24 -13.95,4.76 -18.74,8.19 -10.04,7.19 -21.2,10.35 -30.76,18.37l-10.91 8.11c-15.86,15 -25.8,19.91 -42.58,39.83l-14.83 18.45c-0.99,1.06 -1.81,1.45 -3.2,3.14 -2.28,2.78 -2.77,5.15 -4.59,8.09 -2.24,3.61 -3.31,3.51 -5.59,7.08 -2.47,3.87 -1.78,4.36 -4.33,8.35 -7.14,11.14 -22.11,41.55 -24.44,53.21 -2.34,11.67 -5.51,9.46 -7.67,17.69 -2.08,7.96 -0.44,14.28 -3.92,21.43 -3.22,6.63 -6.27,12.01 -6.27,20.68 -7.37,0 -6.63,1 -12.76,1.5 -16.14,1.3 -24.09,0.36 -40.89,5.06 -15.78,4.41 -38.59,1.62 -54.16,6.05 -4.98,1.42 -5.3,2.52 -10.38,3.88 -12.71,3.41 -28.39,1.15 -39.95,6 -19.02,7.97 -45.31,6.96 -66.5,4.1 -6.26,-0.85 -7.07,-1.98 -11.54,-4.31 -10.33,-5.38 -26.37,-2.56 -36.93,-7.44 -12.21,-5.65 -26.34,-3.69 -39.79,-6.16l-24.1 -6.01c-22.62,-3.78 -25,-0.96 -53.16,-7.06 -5.41,-1.17 -6.78,-1.25 -12.26,-2 -6.24,-0.86 -7.3,-1.86 -12.72,-3.13 0,-15.84 -10.19,-50.24 -17.46,-64.96 -3.09,-6.27 -4.27,-13.74 -8.21,-20.32l-9.89 -18.64c-5.31,-7.93 -8.47,-18.57 -15.33,-25.87 -1.27,-1.36 -1.61,-1.15 -3.1,-3.24l-5.52 -8.75c-1.92,-2.23 -1.6,-1.55 -3.57,-4.35l-12.06 -14.88c-3.65,-4.31 -3.72,-3.07 -7.22,-7.04 -3.52,-4.02 -3.2,-3.37 -7.19,-7.07l-14.17 -14.36c-10.01,-9.01 -21.19,-15.84 -33.1,-22.36l-26.74 -16.05c-7.78,-2.49 -11.53,-6.65 -19.64,-8.89l-21.2 -7.31c-2.95,4.4 -6.78,9.39 -6.03,17.02 0.03,0.34 1.68,7.52 2.22,8.97 2.42,6.59 2.7,3.86 4.48,8.2 2.22,5.43 2.22,14.3 2.49,21.29 0.45,11.63 3.88,11.22 6.61,18.74 2.07,5.69 0.9,13.94 3.16,20.61 2.72,8.03 5.19,9.52 7.03,18.33 1.6,7.66 4.13,9.68 7.44,16.33 3.48,6.99 3.69,10.29 8.51,16.85 8.51,11.59 5.35,9.83 18.41,25.97 7.65,9.47 16.7,18.92 26.61,25.69l17.28 12.83c6.27,5.93 14.36,9.8 22.84,13.6 8.23,3.69 1.39,5.49 10.89,8.13 7.7,2.13 4.55,-2.57 9.07,3.6 -17.54,0 -21.75,-4.56 -36.4,-7.96l-41.15 -11.14c-5.49,-1.63 -0.88,0.05 -5.33,-2.59 -3.69,-2.19 1.49,-0.32 -5.21,-2.72 -12.63,-4.52 -8.38,0.46 -22.42,-7.69 -5.27,-3.06 -13.06,-2.48 -17.91,-4.28 -9.09,-3.37 -0.1,-2.97 -9.77,-6.08 -15.27,-4.9 -23.81,-1.43 -23.49,-22.46 0.14,-9.15 -0.14,-19 -2.63,-27.48 -3.9,-13.2 -3.66,-26.57 -5.57,-40.4 -1.53,-11 -6.11,-11.26 -7.55,-22.56 -2.16,-16.88 -4.6,-12.78 -7.98,-23.72 -1.2,-3.89 -1.09,-7.97 -2.96,-11.3 -2.86,-5.09 -3.96,-1.91 -6.11,-9.74 -1.8,-6.55 -0.16,-5.67 -4.92,-10.93 -0.22,-0.24 -0.6,-0.52 -0.81,-0.77l-3.97 -8.71c-2.38,-7.31 -5.19,-7.36 -9.07,-14.7l-8.64 -13.55c-1.61,-2.89 -1.07,-1.98 -3.56,-4.37l-48.61 -49.64c-8.19,-8.41 -21.24,-13.81 -25.95,-18.42 -5.51,-5.41 -1.17,-4.12 -10.28,-5.75 -10.28,-1.84 -14.45,0.42 -14.63,13.02l3.49 88.65c2.44,22.79 10.56,50.32 22.15,69.78 2.12,3.55 2.25,6.51 4.39,9.88 2.58,4.07 3.57,3.74 6.52,9.33 4.12,7.78 10.74,13.27 16.3,20.15l18.97 20.65c0.2,0.27 0.41,0.71 0.62,0.96l2.59 2.17c4.07,2.63 2.03,-1.65 5.89,3.61 -2.9,1.2 -2.09,1.39 -6.36,0.15 -5.23,-1.52 -2.27,-0.98 -5.94,-3.67 -4.39,-3.22 -0.05,-1.23 -6.33,-3.2l-31.9 -15.64c-4.26,-2.78 -9.01,-2.69 -13.35,-5.67 -2.17,-1.48 -1.16,-1.72 -5.3,-4.21 -2.79,-1.68 -3.85,-1.66 -6.68,-2.83l-24.01 -14.02c-2.54,-1.55 -4.17,-1.89 -6.51,-2.99l-28.81 -18.74c-2.39,-3.17 -3.03,-10.45 -2.28,-15.87l2.84 -54.35c-0.42,-7.24 -1.67,-8.65 -1.69,-17.41 -0.02,-14.47 -0.46,-23.67 -1.6,-36.44 -0.8,-8.94 -5.12,-10.05 -8.03,-30 -1.48,-10.2 -3.12,-6.94 -6.11,-12.91 -2.76,-5.52 -0.69,-8.95 -3.98,-15.04l-6.54 -12.48c-1.75,-5.2 -4.65,-7.5 -7.11,-11.91l-6.99 -12.03c-1.82,-2.11 -0.74,-0.46 -2.06,-2.69l-26.11 -35.69c-2.15,-2.65 -0.9,-2.12 -3.98,-5.53l-6.91 -7.35c-1.79,-1.86 0.28,0.07 -2.53,-2.22 -5.02,-4.07 -3.4,-5.76 -8.86,-10.16 -4.26,-3.43 -8.15,-3.72 -15.29,-3.72 -2.42,4.57 -3.58,7.06 -4.57,12.86 -0.53,3.12 -0.34,3.7 -1.06,6.86 -1.39,6.06 -0.89,3.39 -2.67,6.84 -5.73,11.16 -2.82,31.26 -7.11,45.2 -4.15,13.51 -2.27,17.94 -4.04,30.83 -0.64,4.62 -1.8,8.7 -0.94,16.03 1.45,12.3 -0.41,19.02 4.72,30.19 3.77,8.22 2.5,19.73 7.26,27.61 2.08,3.44 0.36,-1 2.73,5.19l8.2 18.74c2.65,4.68 2.85,7.7 6.19,11.26 2.69,2.86 4.39,3.91 4.41,9.2 0.02,3.57 -0.34,3.99 -2.89,1.79 -1.37,-1.19 -0.09,-0.74 -2.83,-3.17 -8.8,-7.79 -36.66,-25.61 -46.02,-34.98 -8.99,-9.01 -21.05,-15.52 -29.98,-23.91 -0.24,-0.22 -0.53,-0.59 -0.76,-0.82 -0.23,-0.23 -0.51,-0.61 -0.74,-0.84l-6.12 -4.97c-4.41,-3.83 -1.49,-2.81 -6.28,-6.39 -0.76,-0.57 -2.94,-1.75 -3.85,-2.5l-18.22 -18.23c1.68,-6.29 5.94,-9.84 7.59,-16.18 2.05,-7.8 5.15,-10.38 7.08,-18.28l10.02 -39.12c1.3,-7.09 2.33,-13.69 3.85,-19.92 2.09,-8.59 0.72,-13.93 2,-23.36 1.75,-12.95 1.71,-33.89 0,-46.84 -1.32,-9.99 -0.11,-11.87 -2.56,-21.22 -4.44,-17.04 -3.41,-22.72 -9.94,-39.19 -3.09,-7.8 -1.91,-11.65 -6.03,-19.33 -2.17,-4.03 -1.65,-2.12 -3.52,-7.58 -1.4,-4.07 -1.67,-6 -3.56,-9.11 -2.44,-4 -2.62,-2.49 -4.73,-7.95 -2.86,-7.39 -5.3,-8.54 -8.59,-15.19 -2.12,-4.3 -1.08,-4.5 -4.05,-8.63l-9.75 -15.61c-21.51,0 -15.09,5.41 -20.84,18.78 -2.62,6.09 -4.41,4.93 -6.73,13.87 -1.74,6.7 -4.22,7.63 -7.06,13.55l-3.04 11.22c-3.11,8.91 -4.63,3.39 -7.81,19.13 -2.13,10.52 -3.54,5.63 -6.92,13.69 -2.06,4.88 -1.46,12.98 -2.53,18.07 -2.3,10.94 -4.16,4.84 -6.31,14.3 -4.37,19.25 -1.83,39.27 -0.53,58.04 0.56,8.2 2.68,9.24 5.56,15.05 3.33,6.71 1.46,9.77 2.68,17.92 2.12,14.09 11.61,13.12 7.57,30.47l-25.53 -28.35c-0.24,-0.23 -0.6,-0.53 -0.84,-0.75 -9,-8.41 -15.93,-19.52 -24.6,-27.69l-15.5 -17.78c-1.77,-2.37 0.07,0.02 -2.24,-2.51l-9.06 -11.55c-6.74,-7.81 -9.82,-15.92 -2.07,-24.52 0.22,-0.24 0.57,-0.55 0.8,-0.79 0.22,-0.24 0.6,-0.53 0.82,-0.76 4.01,-4.22 4.08,-7.2 7.89,-11.13 5.94,-6.13 4.33,-8.67 9.32,-14.46l9.49 -14.28c4.15,-5.23 2.84,-8.02 6.05,-12.96 10.63,-16.35 4.29,-10.29 9.13,-19.4l5.96 -13.06c1.62,-6.93 1.65,-8.7 4.7,-14.32 4.44,-8.16 6.72,-39.75 6.72,-50.35l-4.53 -52.61c-2.3,-6.19 -3.93,-4.47 -5.73,-13.29 -1.35,-6.54 -0.59,-10.36 -3.04,-15.98 -4.4,-10.07 -5.18,-8.34 -7.32,-21.2 -1.35,-8.09 1.07,-1.43 -2.77,-6.74 -5.82,-8.05 -3.91,-20.89 -10.22,-27.82 -4.08,-4.47 -5.54,-5.45 -10.79,-8.23 -2.72,1.83 -8.56,7.13 -10.99,9.61 -3.71,3.79 -4.43,9.04 -7.65,12.95 -2.13,2.59 -2.25,1.78 -4.28,5.23l-4.2 6.89c-5.82,6.43 -3.83,7.93 -7.83,14.35 -3.31,5.31 -5.19,6.16 -7.45,13.15 -2.06,6.35 -0.1,2.04 -3.39,6.12 -5.25,6.5 -0.62,0.3 -5.9,14.7 -3.31,9.03 -0.36,0.16 -4.64,6.46 -3.89,5.74 -1.37,11.1 -4.22,17.96 -2.75,6.63 -4.35,3.02 -6.51,14.09 -0.83,4.28 -0.52,12.69 -1.41,19.19 -0.98,7.11 -3.49,9.44 -5.24,15.37 -4.92,16.59 -3.49,52.51 0.13,68.11 1.59,6.85 4.8,10.73 5.25,17.24 0.52,7.67 1.16,4.4 -2.96,7.42 -0.47,-2.01 -0.74,-3.91 -1.15,-5.2l-1.34 -3.41c-2.99,-4.89 -3.25,-0.57 -7.25,-8.6l-13.13 -20.14c-2.63,-3.13 -0.17,0.8 -2.83,-3.51 -2.17,-3.5 -1.98,-4.98 -5.06,-9.2l-40.34 -67.43c-0.62,-1.62 -1.03,-3.52 -1.59,-4.75 -2.12,-4.63 -8.71,-7.14 -6.53,-14.07 3.48,-4.76 1.95,-1.27 5.52,-5.57 1.29,-1.56 0.57,-0.94 1.98,-2.77l24.85 -27.45c2.21,-3.08 2.45,-4.59 4.17,-6.93l35.2 -55.13c9.06,-16.81 4.5,-12.2 11.5,-26.54 2.2,-4.52 3.29,-14.57 3.78,-20 1.37,-15.34 5.79,-24.84 4.93,-41.08 -0.38,-7.31 -2.23,-11.3 -3.67,-18.54 -2.34,-11.83 -0.29,-32.07 -4.43,-43.12 -2.61,-6.96 -4.63,-8.66 -5.83,-17.94 -1.99,-15.33 3.24,-31.48 -12.46,-33.47 -13.76,-1.75 -22.15,15.59 -30.66,24.35l-30.05 39.68c-2.41,4.33 -0.85,4.11 -4.23,8.46 -2.67,3.44 -2.04,0.27 -4.76,6.34 -1.53,3.42 -1.21,4.91 -3,8.09 -2.04,3.63 -2.84,2.83 -4.78,6.32 -2.13,3.83 -1.47,5.4 -2.72,9.95 -2.4,8.76 -4.65,2.69 -9.04,24.25 -1.65,8.09 -0.65,2.73 -4.15,8.52 -5.48,9.07 -2.67,26.86 -7.56,38.4 -6.2,14.61 -2.31,26.74 -5.81,41.74 -5.15,-3.78 -2.8,-6.58 -5.42,-13.59 -2.73,-7.31 -4.94,-4.35 -6.83,-12.19 -4.71,-19.52 -5.67,-8.39 -8.58,-19.94 -0.63,-2.48 -0.85,-6.47 -1.69,-9.41 -2.21,-7.83 -4.13,-4.49 -6.63,-12.39 -1.84,-5.83 -1.16,-10.15 -3.96,-15.06 -8.27,-14.5 -3.76,-17.06 -10.79,-28.84 -2.15,-3.6 -1.32,-0.39 -2.77,-6.74l-4.36 -21.67c0.06,-0.17 3.41,-5.98 3.43,-6.01 3.61,-4.31 7.7,-2.61 13.17,-5.9 5.81,-3.49 2.41,-3.39 12.66,-7.94l29.96 -19.16c2.25,-1.7 2.67,-2.78 5,-4.51l18.97 -15.89c1.33,-1.52 0.36,-0.66 2.34,-2.42l25.91 -27.98c0.04,-0.04 1.93,-1.7 2.46,-2.29 2.85,-3.19 1.96,-2.35 3.48,-6.03l14.04 -24c5.04,-7.01 2.87,-7.18 5.26,-15.34 2.48,-8.5 4.1,-3.01 6.73,-12.29 1.15,-4.05 0.55,-11.49 1.24,-17.77 1.42,-12.8 7.97,-10.82 7.81,-31.82 -0.31,-41.97 5.66,-35.18 7.63,-51.17 0.96,-7.73 -1.63,-11.18 -4.48,-15.43 -8.34,0 -11.87,2.68 -17.81,4.37 -8.56,2.44 -6.06,5.08 -15.24,8.53 -4.2,1.58 -3.87,0.41 -7.59,3.5 -5.3,4.39 1.38,0.9 -6,5.1l-66.95 59.82c-4.41,6.52 -6.19,5.77 -9.31,12.88 -2.28,5.21 -11.69,15.75 -17.41,28.55 -3.02,6.74 -1.56,2.96 -4.98,7.69 -4.93,6.8 -1.96,9.87 -5.88,16.31 -5.33,8.77 -4.16,6.17 -6.56,17.21 -2.44,11.28 -5.8,5.48 -8.09,15.68 -1.59,7.11 -0.37,14.07 -2.14,21.64 -15.12,-3.52 -10.34,-24.53 -14.19,-38.1 -2.3,-8.09 -4.57,-12.3 -5.78,-21.17 -1.27,-9.38 -0.77,-15.56 -2.61,-24.33 -1.37,-6.53 -4.51,-11.67 -5.57,-19.79 -2.27,-17.35 -0.24,-33.47 -4.27,-49.64 -3.55,-14.22 -3.64,-8.47 2.32,-19.73 14.28,0 20.62,-4.38 31.48,-8.13 3.89,-1.35 7.21,-1.11 11.76,-2.5l28.53 -11.09c5.64,-2.83 2.78,-2.88 8.84,-5.42l17.64 -9.3c19.94,-9.25 45.13,-31.7 58.86,-48.9 1.87,-2.34 3.13,-4.83 5.17,-7.52 3.29,-4.34 3.4,-3.06 6.07,-8.19 3.91,-7.48 7.1,-8.1 9.98,-16.96 3.48,-10.71 -0.79,-0.79 4.9,-7.78 5.96,-7.33 0.31,-9.41 8.02,-18.93 4.56,-5.63 2.91,-13.74 6.63,-20.31 4.96,-8.74 4.98,-8.76 6.7,-20.25 0.85,-5.64 2.13,-5.78 4.54,-9.73 2.9,-4.76 4.62,-14.86 4.78,-22.16l0.14 0.11 0.31 -13.57z"/>
   <path class="fil4" d="M3108.88 5295.97l6.34 0c-2.96,1.88 3.54,1.78 -3.17,1.31 -3.38,-0.24 -1.42,-0.2 -3.17,-1.31z"/>
   <path class="fil3" d="M5108.45 5378.39c-4.15,0.52 -0.3,-5.89 0,-1.51 0.01,0.14 1.32,1.34 0,1.51z"/>
   <polygon class="fil2" points="4452.49,5746.12 4460.41,5746.12 4460.41,5747.7 4452.49,5747.7 "/>
   <polygon class="fil5" points="1284.86,7273.92 7098.29,7273.92 7098.29,7718.31 1284.86,7718.31 "/>
   <path class="fil6" d="M1333.59 7643.79m62.44 -115.07l78.55 0 -39.28 -154.74 -39.28 154.74zm-62.44 115.07l80.51 -295.34 42.02 0 81.69 295.34 -33.39 0 -22.39 -85.22 -93.47 0 -21.6 85.22 -33.39 0zm236.43 0m32.99 -28.28l42.81 0c13.74,0 24.35,-1.57 32.2,-4.32 7.46,-2.75 13.36,-7.46 17.68,-13.35 7.07,-10.21 12.17,-22.78 14.92,-38.1 3.14,-14.92 4.71,-36.13 4.71,-63.23 0,-47.52 -5.1,-79.33 -14.92,-95.43 -9.82,-16.1 -28.67,-23.96 -55.77,-23.96l-41.63 0 0 238.39zm-32.99 28.28l0 -295.34 83.66 0c33.38,0 58.13,11 74.22,33.38 15.71,22.39 23.57,57.34 23.57,104.47 0,33.38 -2.75,60.48 -8.25,82.08 -5.5,21.6 -13.75,38.88 -25.53,51.45 -7.85,8.64 -16.89,14.92 -26.7,18.46 -10.21,3.54 -24.74,5.5 -44.78,5.5l-76.19 0zm203.44 0m82.48 0l-82.48 -295.34 35.74 0 66.37 254.49 68.33 -254.49 32.99 0 -81.3 295.34 -39.67 0zm142.96 0m34.17 -147.67c0,47.52 4.71,80.12 13.75,98.58 9.03,18.06 24.35,27.1 46.74,27.1 22.39,0 38.1,-9.04 47.13,-26.71 9.03,-17.67 13.35,-50.66 13.35,-98.97 0,-48.31 -4.32,-81.3 -13.35,-98.97 -9.03,-17.67 -24.74,-26.31 -47.13,-26.31 -22.39,0 -37.7,9.03 -46.74,27.09 -9.04,18.07 -13.75,50.67 -13.75,98.19zm-34.17 0c0,-54.98 7.46,-94.65 22.39,-118.61 14.92,-23.95 38.88,-36.13 72.26,-36.13 33.78,0 57.73,11.79 72.66,35.74 14.53,23.96 21.99,63.62 21.99,119 0,55.37 -7.46,95.04 -21.99,119 -14.53,23.96 -38.88,35.74 -72.66,35.74 -32.99,0 -57.34,-12.17 -72.26,-36.53 -14.93,-24.35 -22.39,-63.62 -22.39,-118.21zm230.15 147.67m145.71 -108.39l32.6 0c-0.39,37.31 -8.25,65.98 -23.18,85.62 -15.31,20.03 -36.91,29.85 -65.59,29.85 -30.24,0 -53.02,-12.57 -67.55,-37.7 -14.53,-25.13 -22,-64.02 -22,-116.25 0,-54.59 7.47,-94.26 21.61,-119 14.53,-24.35 38.09,-36.53 70.3,-36.53 27.1,0 47.91,7.86 62.44,23.57 14.53,15.32 22,37.7 22,66.77l0 3.53 -31.81 0c0,-20.42 -4.71,-36.13 -14.14,-47.52 -9.43,-11.39 -22.39,-17.28 -38.88,-17.28 -20.03,0 -34.56,9.82 -43.2,29.06 -9.04,19.64 -13.35,52.23 -13.35,97.4 0,43.99 4.71,75.8 13.74,94.26 9.04,18.85 23.96,28.28 44.78,28.28 16.89,0 29.85,-7.07 38.88,-20.82 9.03,-13.74 13.35,-33.38 13.35,-58.52l0 -4.71zm61.66 108.39m62.44 -115.07l78.55 0 -39.28 -154.74 -39.28 154.74zm-62.44 115.07l80.52 -295.34 42.02 0 81.69 295.34 -33.39 0 -22.39 -85.22 -93.47 0 -21.6 85.22 -33.39 0z"/>
   <path class="fil6" d="M2623.24 7643.79m75.41 0l0 -265.1 -75.41 0 0 -30.24 179.87 0 0 30.24 -70.69 0 0 265.1 -33.78 0zm136.28 0m0 0l0 -295.34 146.5 0 0 30.63 -113.9 0 0 95.05 106.43 0 0 29.85 -106.43 0 0 108.79 115.07 0 0 31.03 -147.67 0zm185.77 0m0.39 -93.87l31.42 0 0 10.61c0,20.03 4.71,35.35 13.74,45.56 9.43,10.21 23.18,15.32 41.24,15.32 16.5,0 29.45,-5.11 38.49,-14.93 9.43,-9.82 14.14,-23.17 14.14,-40.45 0,-14.14 -2.75,-24.74 -8.64,-32.2 -5.5,-7.46 -18.46,-14.93 -38.49,-22.39 -4.71,-1.96 -11.39,-4.32 -19.64,-7.46 -23.96,-8.64 -38.49,-15.32 -43.59,-19.64 -8.25,-7.46 -14.14,-16.1 -18.46,-25.92 -3.93,-10.22 -5.89,-21.61 -5.89,-34.96 0,-25.92 7.07,-45.95 21.21,-60.48 14.14,-14.53 34.17,-21.61 59.3,-21.61 23.96,0 42.81,6.68 56.56,20.04 13.74,13.35 20.42,32.2 20.42,55.77 0,0.78 0,1.96 0,3.54 -0.39,1.96 -0.39,3.14 -0.39,3.93l-30.24 0 0 -3.14c0,-16.49 -3.93,-29.46 -12.17,-38.49 -8.25,-9.03 -19.64,-13.35 -34.56,-13.35 -15.31,0 -27.49,4.32 -36.13,12.96 -9.03,8.64 -13.35,20.03 -13.35,34.96 0,13.74 3.14,24.74 9.03,32.2 5.89,7.86 19.25,15.32 39.28,22.78 2.75,0.78 6.28,2.35 11,3.93 30.63,11.39 49.09,20.03 54.98,25.53 7.46,6.68 12.96,14.93 16.5,24.74 3.53,9.82 5.1,21.21 5.1,34.95 0,27.89 -7.85,49.88 -23.17,65.2 -15.31,15.71 -36.92,23.56 -64.8,23.56 -27.49,0 -47.91,-7.85 -62.05,-23.17 -14.14,-15.32 -21.21,-37.7 -21.21,-67.56 0,-1.18 0,-2.75 0.39,-5.11 0,-1.96 0,-3.53 0,-4.71z"/>
   <path class="fil6" d="M3331.42 7643.79m84.05 -186.55c10.21,-6.68 18.07,-14.53 23.96,-23.57 5.5,-9.03 8.25,-18.46 8.25,-27.88 0,-9.43 -2.36,-17.28 -7.47,-22.78 -4.71,-5.5 -11.39,-8.25 -20.03,-8.25 -8.25,0 -14.92,2.75 -20.03,8.25 -4.71,5.5 -7.07,13.35 -7.07,23.17 0,6.28 1.96,13.74 5.89,22.78 3.93,9.04 9.43,18.46 16.49,28.28zm54.2 133.53l-64.8 -94.26c-13.75,9.04 -23.57,18.85 -30.24,29.07 -6.68,10.6 -9.82,22.39 -9.82,35.34 0,16.5 5.11,30.24 15.32,41.63 10.6,11.39 23.17,16.89 38.49,16.89 9.82,0 18.85,-2.36 27.89,-7.46 8.64,-5.11 16.5,-12.18 23.17,-21.21zm36.52 53.02l-20.43 -28.67c-9.03,11 -20.03,19.24 -32.59,25.14 -12.57,5.89 -25.92,8.64 -40.45,8.64 -23.96,0 -43.59,-7.85 -58.52,-23.96 -15.31,-16.1 -22.78,-36.92 -22.78,-62.44 0,-18.46 4.71,-34.95 14.14,-48.7 9.43,-14.14 24.35,-27.1 44.77,-39.28 -9.03,-11.78 -15.71,-23.57 -20.81,-35.35 -5.1,-11.78 -7.46,-21.99 -7.46,-31.42 0,-17.68 5.5,-32.2 16.5,-43.59 10.6,-11 24.74,-16.5 42.42,-16.5 16.89,0 30.63,5.5 41.63,16.1 10.6,10.6 16.1,24.35 16.1,40.85 0,14.53 -3.93,27.88 -12.17,40.06 -8.25,12.57 -20.42,23.57 -36.92,33.78l56.56 82.47c1.96,-6.28 3.93,-14.14 5.5,-23.56 1.96,-9.03 3.14,-19.63 3.93,-31.03l31.42 0c-1.18,16.89 -3.54,32.21 -7.46,45.95 -3.93,13.35 -8.64,25.14 -14.93,34.17l39.67 57.34 -38.09 0z"/>
   <path class="fil6" d="M3673.82 7643.79m0 0l0 -295.34 32.99 0 0 263.53 117.82 0 0 31.81 -150.81 0zm186.94 0m0 0l0 -295.34 146.5 0 0 30.63 -113.89 0 0 95.05 106.43 0 0 29.85 -106.43 0 0 108.79 115.07 0 0 31.03 -147.67 0zm186.56 0m162.59 0l-1.96 -40.85c-5.5,15.32 -13.75,27.1 -25.53,35.35 -11.78,8.64 -25.92,12.57 -42.42,12.57 -31.81,0 -54.98,-12.57 -70.3,-38.1 -14.93,-25.13 -22.39,-64.8 -22.39,-118.61 0,-53.41 7.86,-92.29 23.57,-116.65 16.1,-23.95 41.24,-36.13 75.8,-36.13 26.71,0 47.91,7.86 62.84,23.96 14.93,16.1 22.39,38.49 22.78,67.55l-32.6 0c-0.79,-20.03 -5.5,-35.74 -15.31,-46.74 -9.43,-11 -22.39,-16.5 -39.28,-16.5 -22.78,0 -39.28,9.82 -49.09,30.24 -9.82,20.03 -14.53,54.59 -14.53,103.68 0,39.67 5.11,68.73 15.71,87.58 10.21,19.24 25.93,28.67 47.52,28.67 19.25,0 33.78,-7.47 43.99,-22.39 10.21,-14.93 15.31,-36.13 15.31,-64.41 0,-3.54 0,-6.28 0,-8.25 0,-1.57 -0.39,-3.54 -0.39,-5.11l-66.76 0 0 -29.85 98.58 0 0 153.95 -25.53 0zm55.77 0m62.44 -115.07l78.55 0 -39.28 -154.74 -39.28 154.74zm-62.44 115.07l80.51 -295.34 42.02 0 81.69 295.34 -33.39 0 -22.39 -85.22 -93.47 0 -21.6 85.22 -33.39 0zm236.43 0m0 0l0 -295.34 32.99 0 0 263.53 117.82 0 0 31.81 -150.81 0z"/>
   <path class="fil6" d="M4780.9 7643.79m145.71 -108.39l32.6 0c-0.39,37.31 -8.25,65.98 -23.17,85.62 -15.31,20.03 -36.91,29.85 -65.59,29.85 -30.24,0 -53.02,-12.57 -67.55,-37.7 -14.53,-25.13 -22,-64.02 -22,-116.25 0,-54.59 7.46,-94.26 21.6,-119 14.53,-24.35 38.09,-36.53 70.3,-36.53 27.1,0 47.92,7.86 62.45,23.57 14.53,15.32 22,37.7 22,66.77l0 3.53 -31.81 0c0,-20.42 -4.71,-36.13 -14.14,-47.52 -9.43,-11.39 -22.39,-17.28 -38.88,-17.28 -20.03,0 -34.56,9.82 -43.2,29.06 -9.03,19.64 -13.35,52.23 -13.35,97.4 0,43.99 4.71,75.8 13.74,94.26 9.03,18.85 23.96,28.28 44.77,28.28 16.89,0 29.85,-7.07 38.89,-20.82 9.03,-13.74 13.35,-33.38 13.35,-58.52l0 -4.71zm76.19 108.39m34.17 -147.67c0,47.52 4.71,80.12 13.74,98.58 9.03,18.06 24.35,27.1 46.74,27.1 22.39,0 38.1,-9.04 47.13,-26.71 9.03,-17.67 13.35,-50.66 13.35,-98.97 0,-48.31 -4.32,-81.3 -13.35,-98.97 -9.03,-17.67 -24.74,-26.31 -47.13,-26.31 -22.39,0 -37.7,9.03 -46.74,27.09 -9.03,18.07 -13.74,50.67 -13.74,98.19zm-34.17 0c0,-54.98 7.46,-94.65 22.39,-118.61 14.93,-23.95 38.88,-36.13 72.26,-36.13 33.78,0 57.73,11.79 72.66,35.74 14.53,23.96 22,63.62 22,119 0,55.37 -7.46,95.04 -22,119 -14.53,23.96 -38.88,35.74 -72.66,35.74 -32.99,0 -57.34,-12.17 -72.26,-36.53 -14.92,-24.35 -22.39,-63.62 -22.39,-118.21zm236.04 147.67m0 0l0 -295.34 43.99 0 102.5 253.31 -3.14 -253.31 31.81 0 0 295.34 -42.02 0 -104.08 -260.78 2.75 260.78 -31.81 0zm221.11 0m0.39 -93.87l31.42 0 0 10.61c0,20.03 4.71,35.35 13.75,45.56 9.43,10.21 23.17,15.32 41.24,15.32 16.5,0 29.46,-5.11 38.49,-14.93 9.43,-9.82 14.14,-23.17 14.14,-40.45 0,-14.14 -2.75,-24.74 -8.64,-32.2 -5.5,-7.46 -18.46,-14.93 -38.49,-22.39 -4.71,-1.96 -11.39,-4.32 -19.64,-7.46 -23.96,-8.64 -38.49,-15.32 -43.59,-19.64 -8.25,-7.46 -14.14,-16.1 -18.46,-25.92 -3.93,-10.22 -5.89,-21.61 -5.89,-34.96 0,-25.92 7.07,-45.95 21.21,-60.48 14.14,-14.53 34.17,-21.61 59.3,-21.61 23.96,0 42.81,6.68 56.56,20.04 13.75,13.35 20.42,32.2 20.42,55.77 0,0.78 0,1.96 0,3.54 -0.39,1.96 -0.39,3.14 -0.39,3.93l-30.24 0 0 -3.14c0,-16.49 -3.93,-29.46 -12.17,-38.49 -8.25,-9.03 -19.64,-13.35 -34.56,-13.35 -15.32,0 -27.5,4.32 -36.13,12.96 -9.04,8.64 -13.35,20.03 -13.35,34.96 0,13.74 3.14,24.74 9.03,32.2 5.89,7.86 19.25,15.32 39.28,22.78 2.75,0.78 6.28,2.35 11,3.93 30.64,11.39 49.09,20.03 54.98,25.53 7.46,6.68 12.96,14.93 16.5,24.74 3.54,9.82 5.11,21.21 5.11,34.95 0,27.89 -7.85,49.88 -23.17,65.2 -15.31,15.71 -36.92,23.56 -64.8,23.56 -27.5,0 -47.92,-7.85 -62.06,-23.17 -14.14,-15.32 -21.21,-37.7 -21.21,-67.56 0,-1.18 0,-2.75 0.39,-5.11 0,-1.96 0,-3.53 0,-4.71zm217.19 93.87m0 -295.34l32.99 0 0 198.72c0,27.49 3.93,46.74 11.78,57.73 7.85,10.6 21.21,16.11 40.06,16.11 19.24,0 33.38,-5.89 42.42,-18.07 9.43,-11.78 13.74,-30.24 13.74,-55.77l0 -198.72 32.2 0 0 192.83c0,24.74 -1.18,42.42 -4.32,52.63 -2.75,10.21 -7.46,19.64 -14.14,27.5 -7.85,9.43 -18.06,16.89 -29.85,21.6 -11.78,5.11 -25.14,7.46 -40.45,7.46 -15.31,0 -29.06,-2.75 -41.63,-7.85 -12.18,-5.5 -21.99,-12.96 -29.06,-22.78 -4.71,-6.68 -8.25,-15.32 -10.6,-25.53 -1.96,-10.6 -3.15,-28.28 -3.15,-53.02l0 -192.83zm225.83 295.34m0 0l0 -295.34 32.99 0 0 263.53 117.82 0 0 31.81 -150.81 0z"/>
   <path class="fil6" d="M6023.03 7643.79m75.41 0l0 -265.1 -75.41 0 0 -30.24 179.87 0 0 30.24 -70.69 0 0 265.1 -33.78 0z"/>
   <path class="fil6" d="M6185.62 7643.79m62.44 -115.07l78.55 0 -39.28 -154.74 -39.28 154.74zm-62.44 115.07l80.52 -295.34 42.02 0 81.69 295.34 -33.39 0 -22.39 -85.22 -93.47 0 -21.6 85.22 -33.39 0zm236.43 0m0 0l0 -295.34 43.99 0 102.51 253.31 -3.14 -253.31 31.81 0 0 295.34 -42.02 0 -104.07 -260.78 2.75 260.78 -31.81 0zm206.98 0m75.41 0l0 -265.1 -75.41 0 0 -30.24 179.87 0 0 30.24 -70.69 0 0 265.1 -33.78 0zm129.6 0m0.39 -93.87l31.42 0 0 10.61c0,20.03 4.71,35.35 13.74,45.56 9.43,10.21 23.17,15.32 41.24,15.32 16.49,0 29.45,-5.11 38.49,-14.93 9.43,-9.82 14.14,-23.17 14.14,-40.45 0,-14.14 -2.75,-24.74 -8.64,-32.2 -5.5,-7.46 -18.46,-14.93 -38.49,-22.39 -4.71,-1.96 -11.39,-4.32 -19.63,-7.46 -23.96,-8.64 -38.49,-15.32 -43.59,-19.64 -8.25,-7.46 -14.14,-16.1 -18.46,-25.92 -3.93,-10.22 -5.89,-21.61 -5.89,-34.96 0,-25.92 7.07,-45.95 21.21,-60.48 14.14,-14.53 34.17,-21.61 59.3,-21.61 23.96,0 42.81,6.68 56.56,20.04 13.74,13.35 20.42,32.2 20.42,55.77 0,0.78 0,1.96 0,3.54 -0.39,1.96 -0.39,3.14 -0.39,3.93l-30.24 0 0 -3.14c0,-16.49 -3.93,-29.46 -12.17,-38.49 -8.25,-9.03 -19.64,-13.35 -34.56,-13.35 -15.31,0 -27.49,4.32 -36.13,12.96 -9.03,8.64 -13.35,20.03 -13.35,34.96 0,13.74 3.14,24.74 9.03,32.2 5.89,7.86 19.25,15.32 39.28,22.78 2.75,0.78 6.28,2.35 11,3.93 30.63,11.39 49.09,20.03 54.98,25.53 7.46,6.68 12.96,14.93 16.49,24.74 3.54,9.82 5.11,21.21 5.11,34.95 0,27.89 -7.85,49.88 -23.17,65.2 -15.32,15.71 -36.92,23.56 -64.8,23.56 -27.49,0 -47.91,-7.85 -62.05,-23.17 -14.14,-15.32 -21.21,-37.7 -21.21,-67.56 0,-1.18 0,-2.75 0.39,-5.11 0,-1.96 0,-3.53 0,-4.71z"/>
  </g>
 </g>
</svg>
